<svg width="44" height="44" viewBox="0 0 44 44" fill="none" xmlns="http://www.w3.org/2000/svg">
<path d="M23.5714 23.573C23.7663 23.573 23.958 23.5903 24.1434 23.6248C22.969 24.7258 22.0333 26.0564 21.3943 27.5339C20.7553 29.0114 20.4266 30.6045 20.4285 32.2143C20.4285 34.2665 20.9534 36.1963 21.8743 37.8761C19.7135 38.8881 17.1568 39.2857 14.9285 39.2857C9.98011 39.2857 3.41154 37.3245 3.15068 31.0325L3.14282 30.6428V26.7143C3.14282 25.058 4.42511 23.7003 6.04996 23.5793L6.28568 23.5714L23.5714 23.573ZM39.2857 13.3571C39.2857 15.2326 38.5407 17.0312 37.2145 18.3574C35.8884 19.6835 34.0897 20.4285 32.2143 20.4285C30.3388 20.4285 28.5401 19.6835 27.214 18.3574C25.8878 17.0312 25.1428 15.2326 25.1428 13.3571C25.1428 11.4816 25.8878 9.683 27.214 8.35685C28.5401 7.0307 30.3388 6.28568 32.2143 6.28568C34.0897 6.28568 35.8884 7.0307 37.2145 8.35685C38.5407 9.683 39.2857 11.4816 39.2857 13.3571ZM14.9285 3.14282C16.0636 3.14293 17.1876 3.3666 18.2363 3.80108C19.2849 4.23556 20.2377 4.87233 21.0403 5.67504C21.8428 6.47775 22.4794 7.43068 22.9137 8.47941C23.348 9.52815 23.5715 10.6522 23.5714 11.7873C23.5713 12.9223 23.3476 14.0463 22.9131 15.095C22.4787 16.1436 21.8419 17.0964 21.0392 17.899C20.2365 18.7016 19.2835 19.3382 18.2348 19.7725C17.1861 20.2067 16.0621 20.4302 14.927 20.4301C12.6345 20.4299 10.4361 19.519 8.81522 17.8979C7.19437 16.2767 6.2839 14.0781 6.28411 11.7857C6.28432 9.49324 7.19518 7.29478 8.81633 5.67393C10.4375 4.05308 12.6361 3.14261 14.9285 3.14282ZM42.4285 32.2143C42.4285 34.9232 41.3524 37.5213 39.4368 39.4368C37.5213 41.3524 34.9232 42.4285 32.2143 42.4285C29.5053 42.4285 26.9072 41.3524 24.9917 39.4368C23.0761 37.5213 22 34.9232 22 32.2143C22 29.5053 23.0761 26.9072 24.9917 24.9917C26.9072 23.0761 29.5053 22 32.2143 22C34.9232 22 37.5213 23.0761 39.4368 24.9917C41.3524 26.9072 42.4285 29.5053 42.4285 32.2143ZM33 25.9285C33 25.7202 32.9172 25.5203 32.7698 25.373C32.6225 25.2256 32.4226 25.1428 32.2143 25.1428C32.0059 25.1428 31.806 25.2256 31.6587 25.373C31.5113 25.5203 31.4285 25.7202 31.4285 25.9285V31.4285H25.9285C25.7202 31.4285 25.5203 31.5113 25.373 31.6587C25.2256 31.806 25.1428 32.0059 25.1428 32.2143C25.1428 32.4226 25.2256 32.6225 25.373 32.7698C25.5203 32.9172 25.7202 33 25.9285 33H31.4285V38.5C31.4285 38.7083 31.5113 38.9082 31.6587 39.0555C31.806 39.2029 32.0059 39.2857 32.2143 39.2857C32.4226 39.2857 32.6225 39.2029 32.7698 39.0555C32.9172 38.9082 33 38.7083 33 38.5V33H38.5C38.7083 33 38.9082 32.9172 39.0555 32.7698C39.2029 32.6225 39.2857 32.4226 39.2857 32.2143C39.2857 32.0059 39.2029 31.806 39.0555 31.6587C38.9082 31.5113 38.7083 31.4285 38.5 31.4285H33V25.9285Z" fill="#2E00B3" fill-opacity="0.6"/>
</svg>
