<svg width="44" height="44" viewBox="0 0 44 44" fill="none" xmlns="http://www.w3.org/2000/svg">
<path d="M13.9838 5.5C14.2682 4.69541 14.7952 3.99885 15.4922 3.50633C16.1891 3.0138 17.0216 2.74955 17.875 2.75H26.125C26.9784 2.74955 27.8109 3.0138 28.5078 3.50633C29.2048 3.99885 29.7318 4.69541 30.0163 5.5H31.625C32.719 5.5 33.7682 5.9346 34.5418 6.70819C35.3154 7.48177 35.75 8.53098 35.75 9.625V37.125C35.75 38.219 35.3154 39.2682 34.5418 40.0418C33.7682 40.8154 32.719 41.25 31.625 41.25H12.375C11.281 41.25 10.2318 40.8154 9.45818 40.0418C8.6846 39.2682 8.25 38.219 8.25 37.125V9.625C8.25 8.53098 8.6846 7.48177 9.45818 6.70819C10.2318 5.9346 11.281 5.5 12.375 5.5H13.9838ZM17.875 5.5C17.5103 5.5 17.1606 5.64487 16.9027 5.90273C16.6449 6.16059 16.5 6.51033 16.5 6.875C16.5 7.23967 16.6449 7.58941 16.9027 7.84727C17.1606 8.10513 17.5103 8.25 17.875 8.25H26.125C26.4897 8.25 26.8394 8.10513 27.0973 7.84727C27.3551 7.58941 27.5 7.23967 27.5 6.875C27.5 6.51033 27.3551 6.16059 27.0973 5.90273C26.8394 5.64487 26.4897 5.5 26.125 5.5H17.875ZM13.75 20.625C13.75 20.9897 13.8949 21.3394 14.1527 21.5973C14.4106 21.8551 14.7603 22 15.125 22H23.375C23.7397 22 24.0894 21.8551 24.3473 21.5973C24.6051 21.3394 24.75 20.9897 24.75 20.625C24.75 20.2603 24.6051 19.9106 24.3473 19.6527C24.0894 19.3949 23.7397 19.25 23.375 19.25H15.125C14.7603 19.25 14.4106 19.3949 14.1527 19.6527C13.8949 19.9106 13.75 20.2603 13.75 20.625ZM13.75 28.875C13.75 29.2397 13.8949 29.5894 14.1527 29.8473C14.4106 30.1051 14.7603 30.25 15.125 30.25H23.375C23.7397 30.25 24.0894 30.1051 24.3473 29.8473C24.6051 29.5894 24.75 29.2397 24.75 28.875C24.75 28.5103 24.6051 28.1606 24.3473 27.9027C24.0894 27.6449 23.7397 27.5 23.375 27.5H15.125C14.7603 27.5 14.4106 27.6449 14.1527 27.9027C13.8949 28.1606 13.75 28.5103 13.75 28.875ZM28.875 22C29.2397 22 29.5894 21.8551 29.8473 21.5973C30.1051 21.3394 30.25 20.9897 30.25 20.625C30.25 20.2603 30.1051 19.9106 29.8473 19.6527C29.5894 19.3949 29.2397 19.25 28.875 19.25C28.5103 19.25 28.1606 19.3949 27.9027 19.6527C27.6449 19.9106 27.5 20.2603 27.5 20.625C27.5 20.9897 27.6449 21.3394 27.9027 21.5973C28.1606 21.8551 28.5103 22 28.875 22ZM28.875 30.25C29.2397 30.25 29.5894 30.1051 29.8473 29.8473C30.1051 29.5894 30.25 29.2397 30.25 28.875C30.25 28.5103 30.1051 28.1606 29.8473 27.9027C29.5894 27.6449 29.2397 27.5 28.875 27.5C28.5103 27.5 28.1606 27.6449 27.9027 27.9027C27.6449 28.1606 27.5 28.5103 27.5 28.875C27.5 29.2397 27.6449 29.5894 27.9027 29.8473C28.1606 30.1051 28.5103 30.25 28.875 30.25Z" fill="#0B9B2A"/>
</svg>
