<svg width="1440" height="1155" viewBox="0 0 1440 1155" fill="none" xmlns="http://www.w3.org/2000/svg">
<g clip-path="url(#clip0_320_5283)">
<rect width="1440" height="1155" fill="white"/>
<g filter="url(#filter0_f_320_5283)">
<rect x="698" y="617" width="931" height="281" rx="140.5" fill="#ED1F24" fill-opacity="0.06"/>
</g>
<g filter="url(#filter1_f_320_5283)">
<rect x="737" y="213" width="931" height="281" rx="140.5" fill="#ED1F24" fill-opacity="0.06"/>
</g>
<g filter="url(#filter2_f_320_5283)">
<rect x="35" y="130" width="1014" height="274" rx="137" fill="#2E00B3" fill-opacity="0.08"/>
</g>
<g filter="url(#filter3_f_320_5283)">
<rect y="531" width="1014" height="274" rx="137" fill="#2E00B3" fill-opacity="0.08"/>
</g>
<g filter="url(#filter4_d_320_5283)">
<path d="M1033.29 743.851L1045.16 741.881C1051.15 740.889 1054.14 740.392 1054.42 738.661L1054.42 738.637C1054.68 736.903 1051.99 735.517 1046.59 732.744L1046.59 732.744C1045.39 732.124 1044.79 731.814 1044.43 731.274L1044.43 731.265C1044.08 730.723 1044.04 730.046 1043.96 728.693C1043.61 722.638 1043.43 719.61 1041.74 719.148L1041.72 719.141C1040.02 718.696 1038.36 721.23 1035.03 726.298L1028.41 736.355C1025.79 740.351 1024.47 742.349 1025.34 743.687C1026.21 745.025 1028.57 744.634 1033.29 743.851Z" fill="url(#paint0_linear_320_5283)"/>
</g>
<g filter="url(#filter5_d_320_5283)">
<path d="M289.487 115.684L301.361 113.714C307.344 112.722 310.335 112.225 310.615 110.494L310.619 110.47C310.881 108.736 308.184 107.35 302.791 104.577L302.791 104.577C301.584 103.957 300.981 103.647 300.628 103.107L300.623 103.098C300.272 102.556 300.233 101.879 300.155 100.526C299.805 94.4707 299.631 91.4433 297.939 90.9807L297.916 90.9743C296.22 90.5287 294.554 93.0627 291.222 98.1305L284.61 108.188C281.983 112.184 280.67 114.182 281.54 115.52C282.41 116.858 284.769 116.467 289.487 115.684Z" fill="url(#paint1_linear_320_5283)"/>
</g>
<g filter="url(#filter6_d_320_5283)">
<path d="M548.706 784.042L539.118 776.767C534.287 773.101 531.871 771.268 530.421 772.254L530.401 772.268C528.961 773.268 529.806 776.18 531.496 782.005L531.496 782.005C531.874 783.307 532.063 783.958 531.913 784.586L531.91 784.596C531.758 785.223 531.293 785.716 530.362 786.703C526.202 791.117 524.122 793.323 524.948 794.87L524.96 794.892C525.801 796.43 528.787 795.9 534.758 794.84L546.609 792.736C551.318 791.899 553.672 791.481 554.047 789.93C554.421 788.378 552.516 786.933 548.706 784.042Z" fill="url(#paint2_linear_320_5283)"/>
</g>
</g>
<defs>
<filter id="filter0_f_320_5283" x="398" y="317" width="1531" height="881" filterUnits="userSpaceOnUse" color-interpolation-filters="sRGB">
<feFlood flood-opacity="0" result="BackgroundImageFix"/>
<feBlend mode="normal" in="SourceGraphic" in2="BackgroundImageFix" result="shape"/>
<feGaussianBlur stdDeviation="150" result="effect1_foregroundBlur_320_5283"/>
</filter>
<filter id="filter1_f_320_5283" x="437" y="-87" width="1531" height="881" filterUnits="userSpaceOnUse" color-interpolation-filters="sRGB">
<feFlood flood-opacity="0" result="BackgroundImageFix"/>
<feBlend mode="normal" in="SourceGraphic" in2="BackgroundImageFix" result="shape"/>
<feGaussianBlur stdDeviation="150" result="effect1_foregroundBlur_320_5283"/>
</filter>
<filter id="filter2_f_320_5283" x="-265" y="-170" width="1614" height="874" filterUnits="userSpaceOnUse" color-interpolation-filters="sRGB">
<feFlood flood-opacity="0" result="BackgroundImageFix"/>
<feBlend mode="normal" in="SourceGraphic" in2="BackgroundImageFix" result="shape"/>
<feGaussianBlur stdDeviation="150" result="effect1_foregroundBlur_320_5283"/>
</filter>
<filter id="filter3_f_320_5283" x="-300" y="231" width="1614" height="874" filterUnits="userSpaceOnUse" color-interpolation-filters="sRGB">
<feFlood flood-opacity="0" result="BackgroundImageFix"/>
<feBlend mode="normal" in="SourceGraphic" in2="BackgroundImageFix" result="shape"/>
<feGaussianBlur stdDeviation="150" result="effect1_foregroundBlur_320_5283"/>
</filter>
<filter id="filter4_d_320_5283" x="1009.28" y="719.091" width="60.9589" height="62.336" filterUnits="userSpaceOnUse" color-interpolation-filters="sRGB">
<feFlood flood-opacity="0" result="BackgroundImageFix"/>
<feColorMatrix in="SourceAlpha" type="matrix" values="0 0 0 0 0 0 0 0 0 0 0 0 0 0 0 0 0 0 127 0" result="hardAlpha"/>
<feOffset dy="21.0634"/>
<feGaussianBlur stdDeviation="7.89877"/>
<feComposite in2="hardAlpha" operator="out"/>
<feColorMatrix type="matrix" values="0 0 0 0 1 0 0 0 0 0.721569 0 0 0 0 0.729412 0 0 0 1 0"/>
<feBlend mode="normal" in2="BackgroundImageFix" result="effect1_dropShadow_320_5283"/>
<feBlend mode="normal" in="SourceGraphic" in2="effect1_dropShadow_320_5283" result="shape"/>
</filter>
<filter id="filter5_d_320_5283" x="265.475" y="90.9243" width="60.9586" height="62.336" filterUnits="userSpaceOnUse" color-interpolation-filters="sRGB">
<feFlood flood-opacity="0" result="BackgroundImageFix"/>
<feColorMatrix in="SourceAlpha" type="matrix" values="0 0 0 0 0 0 0 0 0 0 0 0 0 0 0 0 0 0 127 0" result="hardAlpha"/>
<feOffset dy="21.0634"/>
<feGaussianBlur stdDeviation="7.89877"/>
<feComposite in2="hardAlpha" operator="out"/>
<feColorMatrix type="matrix" values="0 0 0 0 1 0 0 0 0 0.721569 0 0 0 0 0.729412 0 0 0 1 0"/>
<feBlend mode="normal" in2="BackgroundImageFix" result="effect1_dropShadow_320_5283"/>
<feBlend mode="normal" in="SourceGraphic" in2="effect1_dropShadow_320_5283" result="shape"/>
</filter>
<filter id="filter6_d_320_5283" x="508.972" y="771.99" width="60.9183" height="60.7232" filterUnits="userSpaceOnUse" color-interpolation-filters="sRGB">
<feFlood flood-opacity="0" result="BackgroundImageFix"/>
<feColorMatrix in="SourceAlpha" type="matrix" values="0 0 0 0 0 0 0 0 0 0 0 0 0 0 0 0 0 0 127 0" result="hardAlpha"/>
<feOffset dy="21.0634"/>
<feGaussianBlur stdDeviation="7.89877"/>
<feComposite in2="hardAlpha" operator="out"/>
<feColorMatrix type="matrix" values="0 0 0 0 0.879494 0 0 0 0 0.8375 0 0 0 0 1 0 0 0 1 0"/>
<feBlend mode="normal" in2="BackgroundImageFix" result="effect1_dropShadow_320_5283"/>
<feBlend mode="normal" in="SourceGraphic" in2="effect1_dropShadow_320_5283" result="shape"/>
</filter>
<linearGradient id="paint0_linear_320_5283" x1="1060.09" y1="718.67" x2="1012.94" y2="767.618" gradientUnits="userSpaceOnUse">
<stop stop-color="#ED1F24"/>
<stop offset="1" stop-color="#FFB8BA"/>
</linearGradient>
<linearGradient id="paint1_linear_320_5283" x1="316.284" y1="90.5026" x2="269.136" y2="139.451" gradientUnits="userSpaceOnUse">
<stop stop-color="#ED1F24"/>
<stop offset="1" stop-color="#FFB8BA"/>
</linearGradient>
<linearGradient id="paint2_linear_320_5283" x1="511.999" y1="781.868" x2="579.958" y2="782.505" gradientUnits="userSpaceOnUse">
<stop stop-color="#2E00B3"/>
<stop offset="1" stop-color="#C0AAFF"/>
</linearGradient>
<clipPath id="clip0_320_5283">
<rect width="1440" height="1155" fill="white"/>
</clipPath>
</defs>
</svg>
