<svg width="44" height="44" viewBox="0 0 44 44" fill="none" xmlns="http://www.w3.org/2000/svg">
<path d="M3.66667 13.2916C3.66667 11.7113 4.29442 10.1958 5.41182 9.07841C6.52923 7.961 8.04475 7.33325 9.625 7.33325H34.375C35.1575 7.33325 35.9323 7.48737 36.6552 7.7868C37.3781 8.08624 38.0349 8.52512 38.5882 9.07841C39.1415 9.63169 39.5803 10.2885 39.8798 11.0114C40.1792 11.7343 40.3333 12.5091 40.3333 13.2916V30.7083C40.3333 31.4907 40.1792 32.2655 39.8798 32.9884C39.5803 33.7113 39.1415 34.3681 38.5882 34.9214C38.0349 35.4747 37.3781 35.9136 36.6552 36.213C35.9323 36.5125 35.1575 36.6666 34.375 36.6666H22.8708L19.1125 32.9083C20.1424 30.8401 20.4309 28.4809 19.9296 26.2255C19.4283 23.9701 18.1676 21.9553 16.3586 20.5181C14.5495 19.081 12.3018 18.3087 9.99144 18.3305C7.68111 18.3522 5.44832 19.1668 3.66667 20.6378V13.2916ZM10.0833 36.6666C11.7966 36.6691 13.4677 36.1357 14.8628 35.1413L19.6533 39.9299C19.7792 40.065 19.931 40.1734 20.0997 40.2485C20.2683 40.3237 20.4504 40.3641 20.635 40.3673C20.8197 40.3706 21.003 40.3366 21.1743 40.2675C21.3455 40.1983 21.501 40.0954 21.6316 39.9648C21.7621 39.8343 21.8651 39.6787 21.9342 39.5075C22.0034 39.3363 22.0373 39.1529 22.0341 38.9683C22.0308 38.7837 21.9904 38.6016 21.9153 38.4329C21.8401 38.2643 21.7318 38.1125 21.5967 37.9866L16.808 33.1961C17.8794 31.6886 18.4133 29.8649 18.3238 28.0177C18.2344 26.1704 17.5269 24.4068 16.3149 23.0099C15.1028 21.613 13.4566 20.6638 11.6404 20.3148C9.8242 19.9658 7.94341 20.2372 6.29995 21.0853C4.65649 21.9335 3.34568 23.3093 2.57794 24.9918C1.8102 26.6744 1.63007 28.5661 2.06646 30.3633C2.50285 32.1605 3.53045 33.7589 4.98429 34.902C6.43814 36.0451 8.23391 36.6665 10.0833 36.6666ZM10.0833 33.9166C8.62464 33.9166 7.2257 33.3371 6.19425 32.3057C5.1628 31.2742 4.58333 29.8753 4.58333 28.4166C4.58333 26.9579 5.1628 25.5589 6.19425 24.5275C7.2257 23.496 8.62464 22.9166 10.0833 22.9166C11.542 22.9166 12.941 23.496 13.9724 24.5275C15.0039 25.5589 15.5833 26.9579 15.5833 28.4166C15.5833 29.8753 15.0039 31.2742 13.9724 32.3057C12.941 33.3371 11.542 33.9166 10.0833 33.9166Z" fill="#FFDD76"/>
</svg>
