<svg width="90" height="90" viewBox="0 0 90 90" fill="none" xmlns="http://www.w3.org/2000/svg">
<path d="M55.5469 48.9558C55.5469 57.6928 62.6302 64.7761 71.3672 64.7761C80.1042 64.7761 87.1875 57.6914 87.1875 48.9558H84.832L74.5594 22.8037C75.2047 22.3164 75.7284 21.6862 76.0895 20.9625C76.4506 20.2389 76.6392 19.4415 76.6406 18.6328C76.6406 15.7219 74.2781 13.3594 71.3672 13.3594C70.5966 13.3594 69.8709 13.5337 69.2114 13.8291C68.1352 13.4102 67.0622 12.9832 65.9925 12.548C61.9594 10.8942 57.2667 8.99016 52.38 7.89328C51.808 6.39941 50.7965 5.1141 49.4789 4.207C48.1613 3.29991 46.5996 2.81369 45 2.8125C43.4002 2.81379 41.8384 3.30023 40.5208 4.20758C39.2032 5.11494 38.1918 6.40055 37.62 7.89469C32.7319 8.99016 28.0392 10.8942 24.0061 12.5494C23.0878 12.9262 21.7955 13.4353 20.7872 13.8305C20.1107 13.5221 19.3763 13.3615 18.6328 13.3594C17.2342 13.3594 15.8929 13.915 14.9039 14.9039C13.915 15.8929 13.3594 17.2342 13.3594 18.6328C13.3612 19.4413 13.5498 20.2384 13.9106 20.962C14.2714 21.6855 14.7945 22.3158 15.4392 22.8037L5.16656 48.9558H2.8125C2.8125 57.6928 9.89578 64.7761 18.6328 64.7761C27.3698 64.7761 34.4531 57.6928 34.4531 48.9558H32.0977L21.825 22.8052C22.47 22.3171 22.9934 21.6866 23.3544 20.9628C23.7154 20.239 23.9043 19.4416 23.9062 18.6328C23.9062 18.5105 23.8767 18.3952 23.8697 18.2742L25.1845 17.7413C28.8844 16.2211 33.1692 14.4731 37.5666 13.4058C37.9642 14.5058 38.6008 15.504 39.4305 16.3285C40.2601 17.1531 41.2622 17.7835 42.3647 18.1744V26.235H40.7475V51.5925H38.9897V64.0083C30.2667 65.6269 23.9062 70.6669 23.9062 76.6406H21.2695V81.9141H15.9961V87.1875H74.0039V81.9141H68.7305V76.6406H66.0938C66.0938 70.6669 59.7305 65.6269 51.0117 64.0083V51.5925H49.2539V26.2336H47.6367V18.173C48.7389 17.7818 49.7407 17.1513 50.57 16.3268C51.3994 15.5023 52.0358 14.5042 52.4334 13.4044C56.8322 14.4717 61.1142 16.2197 64.8169 17.7398C65.2669 17.9255 65.6916 18.0956 66.1303 18.2742C66.1219 18.3952 66.0938 18.5105 66.0938 18.6328C66.0955 19.4413 66.2842 20.2384 66.645 20.962C67.0058 21.6855 67.5289 22.3158 68.1736 22.8037L57.9009 48.9544H55.5469V48.9558ZM18.6328 15.9961C18.9843 15.9881 19.3338 16.0504 19.6609 16.1794C19.9879 16.3083 20.2859 16.5014 20.5373 16.7472C20.7887 16.993 20.9884 17.2865 21.1247 17.6106C21.2611 17.9346 21.3312 18.2827 21.3311 18.6342C21.331 18.9858 21.2607 19.3338 21.1242 19.6578C20.9877 19.9818 20.7878 20.2752 20.5363 20.5209C20.2848 20.7665 19.9867 20.9594 19.6596 21.0882C19.3324 21.217 18.9829 21.2791 18.6314 21.2709C17.9425 21.2548 17.2872 20.9698 16.8057 20.4768C16.3242 19.9838 16.0547 19.322 16.0549 18.6328C16.0551 17.9437 16.3249 17.282 16.8067 16.7892C17.2884 16.2965 17.9439 16.0118 18.6328 15.9961ZM29.3752 48.9558H7.88625L17.7609 23.8191C18.0464 23.8669 18.3347 23.9062 18.6328 23.9062C18.9309 23.9062 19.2178 23.8669 19.5019 23.8177L29.3752 48.9558ZM71.3672 15.9961C71.7187 15.9881 72.0682 16.0504 72.3953 16.1794C72.7223 16.3083 73.0203 16.5014 73.2717 16.7472C73.5231 16.993 73.7228 17.2865 73.8591 17.6106C73.9954 17.9346 74.0656 18.2827 74.0655 18.6342C74.0654 18.9858 73.995 19.3338 73.8586 19.6578C73.7221 19.9818 73.5222 20.2752 73.2707 20.5209C73.0191 20.7665 72.7211 20.9594 72.394 21.0882C72.0668 21.217 71.7173 21.2791 71.3658 21.2709C70.6768 21.2548 70.0215 20.9698 69.5401 20.4768C69.0586 19.9838 68.7891 19.322 68.7893 18.6328C68.7894 17.9437 69.0593 17.282 69.541 16.7892C70.0228 16.2965 70.6782 16.0118 71.3672 15.9961ZM70.4967 23.8191C70.7839 23.8725 71.0751 23.9017 71.3672 23.9062C71.6639 23.9062 71.9522 23.8669 72.2363 23.8177L82.1095 48.9544H60.6192L70.4967 23.8191Z" fill="#4C75F2"/>
</svg>
