<svg width="515" height="430" viewBox="0 0 515 430" fill="none" xmlns="http://www.w3.org/2000/svg">
<path d="M483.745 202.34C483.745 311.181 395.508 399.415 286.662 399.415C177.815 399.415 89.5783 311.181 89.5783 202.34C89.5783 93.4993 177.815 5.26585 286.662 5.26585C395.508 5.26585 483.745 93.4993 483.745 202.34Z" stroke="#002947" stroke-opacity="0.02" stroke-width="10.5317"/>
<path d="M465.01 202.34C465.01 300.834 385.161 380.68 286.662 380.68C188.163 380.68 108.315 300.834 108.315 202.34C108.315 103.847 188.163 24.0011 286.662 24.0011C385.161 24.0011 465.01 103.847 465.01 202.34Z" stroke="#002947" stroke-opacity="0.02" stroke-width="10.5317"/>
<path d="M446.273 202.34C446.273 290.487 374.813 361.944 286.661 361.944C198.51 361.944 127.05 290.487 127.05 202.34C127.05 114.194 198.51 42.7363 286.661 42.7363C374.813 42.7363 446.273 114.194 446.273 202.34Z" stroke="#002947" stroke-opacity="0.02" stroke-width="10.5317"/>
<path d="M427.537 202.34C427.537 280.14 364.465 343.209 286.662 343.209C208.858 343.209 145.786 280.14 145.786 202.34C145.786 124.541 208.858 61.4715 286.662 61.4715C364.465 61.4715 427.537 124.541 427.537 202.34Z" stroke="#002947" stroke-opacity="0.02" stroke-width="10.5317"/>
<path d="M408.801 201.404C408.801 268.856 354.118 323.537 286.662 323.537C219.206 323.537 164.523 268.856 164.523 201.404C164.523 133.951 219.206 79.27 286.662 79.27C354.118 79.27 408.801 133.951 408.801 201.404Z" stroke="#002947" stroke-opacity="0.02" stroke-width="10.5317"/>
<path d="M390.066 202.34C390.066 259.446 343.771 305.739 286.662 305.739C229.554 305.739 183.259 259.446 183.259 202.34C183.259 145.235 229.554 98.9419 286.662 98.9419C343.771 98.9419 390.066 145.235 390.066 202.34Z" stroke="#002947" stroke-opacity="0.02" stroke-width="10.5317"/>
<path d="M371.329 202.34C371.329 249.098 333.422 287.004 286.662 287.004C239.901 287.004 201.994 249.098 201.994 202.34C201.994 155.582 239.901 117.677 286.662 117.677C333.422 117.677 371.329 155.582 371.329 202.34Z" stroke="#002947" stroke-opacity="0.02" stroke-width="10.5317"/>
<path d="M352.593 202.34C352.593 238.751 323.075 268.268 286.662 268.268C250.249 268.268 220.731 238.751 220.731 202.34C220.731 165.93 250.249 136.412 286.662 136.412C323.075 136.412 352.593 165.93 352.593 202.34Z" stroke="#002947" stroke-opacity="0.02" stroke-width="10.5317"/>
<path d="M333.857 202.34C333.857 228.404 312.727 249.533 286.662 249.533C260.597 249.533 239.467 228.404 239.467 202.34C239.467 176.277 260.597 155.148 286.662 155.148C312.727 155.148 333.857 176.277 333.857 202.34Z" stroke="#002947" stroke-opacity="0.02" stroke-width="10.5317"/>
<path d="M315.12 201.404C315.12 217.12 302.379 229.861 286.661 229.861C270.944 229.861 258.202 217.12 258.202 201.404C258.202 185.687 270.944 172.946 286.661 172.946C302.379 172.946 315.12 185.687 315.12 201.404Z" stroke="#002947" stroke-opacity="0.02" stroke-width="10.5317"/>
<path d="M296.385 201.404C296.385 206.773 292.032 211.126 286.662 211.126C281.292 211.126 276.939 206.773 276.939 201.404C276.939 196.034 281.292 191.681 286.662 191.681C292.032 191.681 296.385 196.034 296.385 201.404Z" stroke="#002947" stroke-opacity="0.02" stroke-width="10.5317"/>
<rect width="208.907" height="303.511" rx="17.9039" transform="matrix(0.977472 0.211063 -0.211081 0.977468 64.0654 15.9249)" fill="white"/>
<g clip-path="url(#clip0_58_2544)">
<path d="M85.9555 241.438L78.1964 239.646L80.4576 243.092L85.9555 241.438ZM80.8054 244.205L80.9497 248.396L86.3514 242.536L80.8054 244.205ZM88.3101 240.792C88.4171 240.81 88.5171 240.857 88.5988 240.928C88.6805 240.999 88.7406 241.091 88.7724 241.195C88.8042 241.299 88.8063 241.409 88.7786 241.514C88.7509 241.618 88.6944 241.713 88.6156 241.788L80.8716 250.188C80.7972 250.281 80.6963 250.349 80.5823 250.382C80.4684 250.415 80.347 250.413 80.2343 250.376C80.1217 250.338 80.0233 250.267 79.9524 250.172C79.8814 250.076 79.8414 249.962 79.8375 249.843L79.6356 243.953L76.4339 239.074C76.3705 238.978 76.3376 238.864 76.3391 238.749C76.3407 238.633 76.3767 238.521 76.4426 238.426C76.5086 238.331 76.6013 238.258 76.7091 238.216C76.8168 238.174 76.9346 238.165 77.0474 238.191L88.3101 240.792Z" fill="#2C2C2C"/>
</g>
<g clip-path="url(#clip1_58_2544)">
<path d="M65.4819 235.693C66.4181 235.896 67.2869 236.335 68.0058 236.968C68.7247 237.602 69.2697 238.408 69.5892 239.312C69.9086 240.215 69.9918 241.186 69.831 242.131C69.6701 243.076 69.2704 243.964 68.67 244.711L68.7484 247.137C68.751 247.23 68.7291 247.323 68.6849 247.405C68.6407 247.487 68.5757 247.556 68.4965 247.605C68.4172 247.654 68.3265 247.682 68.2333 247.685C68.1401 247.688 68.0477 247.667 67.9654 247.623L65.9581 246.559C65.138 246.812 64.2709 246.873 63.4235 246.738C62.5761 246.604 61.7708 246.277 61.0695 245.782C60.3683 245.287 59.7896 244.638 59.3781 243.885C58.9665 243.132 58.733 242.294 58.6954 241.436C58.6578 240.579 58.8172 239.724 59.1612 238.937C59.5053 238.15 60.0249 237.453 60.6802 236.898C61.3355 236.344 62.109 235.947 62.9414 235.738C63.7738 235.529 64.6428 235.514 65.4819 235.693V235.693ZM68.1195 238.72C67.6562 238 66.9996 237.426 66.225 237.063C65.4504 236.7 64.5892 236.563 63.7402 236.668C62.8912 236.772 62.0887 237.114 61.4247 237.654C60.7608 238.194 60.2623 238.91 59.9864 239.72C59.7105 240.53 59.6684 241.402 59.8649 242.235C60.0614 243.068 60.4885 243.828 61.0973 244.429C61.7061 245.03 62.472 245.448 63.307 245.633C64.142 245.818 65.0124 245.765 65.8184 245.478C65.8893 245.45 65.9654 245.437 66.0415 245.441C66.1176 245.445 66.1919 245.466 66.2595 245.501L67.6507 246.248L67.5962 244.551C67.589 244.413 67.6353 244.278 67.7256 244.173C67.9771 243.886 68.191 243.568 68.362 243.227C68.715 242.518 68.8783 241.73 68.8358 240.94C68.7934 240.15 68.5467 239.384 68.1199 238.718L68.1195 238.72Z" fill="#2C2C2C"/>
</g>
<path d="M40.4606 236.857L44.0554 242.067C44.0944 242.124 44.1139 242.152 44.1334 242.174C44.2785 242.339 44.514 242.39 44.7141 242.3C44.741 242.287 44.7705 242.27 44.8294 242.234L50.2537 238.972C51.7799 238.054 52.3575 236.126 51.5874 234.52L51.4426 234.218C50.5213 232.297 47.8993 232.02 46.5964 233.706C46.4124 233.944 46.0345 233.862 45.9651 233.569C45.4739 231.496 42.9711 230.667 41.3392 232.037L41.0828 232.252C39.7186 233.397 39.4491 235.391 40.4606 236.857Z" stroke="#2C2C2C" stroke-width="1.05317"/>
<rect width="63.7025" height="6.55734" transform="matrix(0.977472 0.211063 -0.211081 0.977468 113.72 61.1475)" fill="#DBDBDB"/>
<rect width="166.751" height="6.55732" transform="matrix(0.977472 0.211063 -0.211081 0.977468 33.123 261.29)" fill="#DBDBDB"/>
<rect width="166.751" height="6.55732" transform="matrix(0.977472 0.211063 -0.211081 0.977468 30.5527 273.194)" fill="#DBDBDB"/>
<rect width="95.5537" height="6.55737" transform="matrix(0.977472 0.211063 -0.211081 0.977468 27.9814 285.097)" fill="#DBDBDB"/>
<ellipse rx="10.7732" ry="10.7728" transform="matrix(0.977472 0.211063 -0.211081 0.977468 86.9304 58.7171)" fill="#002947"/>
<rect width="167.687" height="118.969" transform="matrix(0.977472 0.211063 -0.211081 0.977468 70.1719 85.2864)" fill="#ECF9FF"/>
<rect width="167.687" height="20.6088" transform="matrix(0.977472 0.211063 -0.211081 0.977468 45.0596 201.575)" fill="#002947"/>
<path d="M196.281 245.248L196.723 244.963L197.009 245.406L196.566 245.691L196.281 245.248ZM195.108 242.458L196.723 244.963L195.838 245.534L194.223 243.029L195.108 242.458ZM196.566 245.691L194.061 247.306L193.49 246.421L195.995 244.806L196.566 245.691Z" fill="white"/>
<path d="M51.5736 216.985C51.2222 216.909 51.0856 216.69 51.1639 216.327L52.1989 211.534C52.276 211.177 52.493 211.037 52.8498 211.114L54.8346 211.543C55.4715 211.681 55.9285 211.946 56.2056 212.339C56.4827 212.732 56.5597 213.214 56.4363 213.785C56.313 214.356 56.0435 214.766 55.6276 215.016C55.213 215.259 54.6872 215.312 54.0503 215.175L52.5844 214.858L52.218 216.555C52.1398 216.917 51.925 217.06 51.5736 216.985ZM52.764 214.027L54.0652 214.308C54.8229 214.471 55.2729 214.224 55.4151 213.565C55.5562 212.911 55.2479 212.503 54.4903 212.339L53.189 212.058L52.764 214.027ZM56.7667 218.106C56.4153 218.03 56.2776 217.816 56.3535 217.465L57.0257 214.352C57.1004 214.006 57.3052 213.869 57.6401 213.942C57.975 214.014 58.1052 214.223 58.0305 214.569L57.9753 214.824C58.2749 214.395 58.7546 214.223 59.4143 214.308C59.6563 214.331 59.7591 214.494 59.7225 214.796C59.6871 215.093 59.5094 215.224 59.1893 215.19L59.0046 215.167C58.315 215.087 57.9027 215.36 57.7675 215.986L57.3994 217.691C57.3235 218.042 57.1126 218.181 56.7667 218.106ZM61.2333 219.088C60.8161 218.998 60.4721 218.834 60.2014 218.598C59.9307 218.361 59.744 218.068 59.6414 217.718C59.54 217.363 59.5355 216.971 59.628 216.543C59.7204 216.115 59.8856 215.763 60.1233 215.486C60.3611 215.21 60.6521 215.02 60.9963 214.916C61.3406 214.813 61.7213 214.806 62.1386 214.896C62.5558 214.986 62.8998 215.149 63.1705 215.386C63.4412 215.622 63.6279 215.916 63.7305 216.265C63.8331 216.615 63.8382 217.004 63.7457 217.432C63.6533 217.86 63.4875 218.215 63.2486 218.497C63.0108 218.773 62.7198 218.963 62.3756 219.067C62.0314 219.171 61.6506 219.178 61.2333 219.088ZM61.4023 218.305C61.7098 218.372 61.9805 218.315 62.2146 218.136C62.4499 217.951 62.6144 217.642 62.7081 217.208C62.8029 216.769 62.7801 216.422 62.6397 216.168C62.5004 215.908 62.2771 215.745 61.9696 215.678C61.6622 215.612 61.3914 215.668 61.1573 215.848C60.9244 216.021 60.7605 216.328 60.6656 216.767C60.572 217.201 60.5942 217.55 60.7322 217.816C60.8715 218.076 61.0948 218.239 61.4023 218.305ZM64.6725 219.813C64.3321 219.74 64.1999 219.527 64.2758 219.176L64.948 216.063C65.0227 215.717 65.2275 215.58 65.5624 215.652C65.8973 215.725 66.0274 215.934 65.9527 216.28L65.9172 216.444C66.0854 216.251 66.2896 216.117 66.5298 216.042C66.7712 215.962 67.0319 215.952 67.3119 216.013C67.9159 216.143 68.2542 216.492 68.3271 217.06C68.5067 216.84 68.7294 216.687 68.9951 216.6C69.262 216.509 69.5465 216.495 69.8485 216.561C70.7544 216.756 71.0882 217.406 70.8499 218.509L70.4195 220.502C70.3436 220.854 70.1327 220.992 69.7868 220.917C69.4464 220.844 69.3142 220.631 69.39 220.28L69.8115 218.328C69.8779 218.021 69.8744 217.784 69.8009 217.619C69.7329 217.455 69.5781 217.347 69.3365 217.295C69.0675 217.237 68.8354 217.287 68.6401 217.446C68.4461 217.6 68.3129 217.844 68.2406 218.179L67.8582 219.949C67.7823 220.301 67.5742 220.44 67.2338 220.366C66.8879 220.291 66.7529 220.078 66.8288 219.727L67.2503 217.775C67.3167 217.468 67.3131 217.231 67.2396 217.066C67.1716 216.902 67.0196 216.794 66.7835 216.743C66.5145 216.685 66.2823 216.736 66.0871 216.895C65.8931 217.048 65.7599 217.292 65.6876 217.627L65.3052 219.398C65.2293 219.749 65.0184 219.888 64.6725 219.813ZM73.2006 221.672C72.7834 221.582 72.4394 221.418 72.1687 221.182C71.898 220.945 71.7113 220.652 71.6087 220.302C71.5072 219.947 71.5028 219.555 71.5952 219.127C71.6877 218.699 71.8529 218.347 72.0906 218.07C72.3284 217.794 72.6194 217.604 72.9636 217.5C73.3078 217.397 73.6886 217.39 74.1059 217.48C74.5231 217.57 74.8671 217.733 75.1378 217.97C75.4085 218.206 75.5952 218.5 75.6978 218.849C75.8004 219.199 75.8055 219.588 75.713 220.016C75.6205 220.444 75.4548 220.799 75.2159 221.081C74.9781 221.357 74.6871 221.547 74.3429 221.651C73.9986 221.755 73.6179 221.762 73.2006 221.672ZM73.3696 220.889C73.677 220.956 73.9478 220.899 74.1819 220.72C74.4172 220.535 74.5817 220.226 74.6753 219.792C74.7702 219.353 74.7474 219.006 74.607 218.752C74.4677 218.492 74.2444 218.329 73.9369 218.262C73.6294 218.196 73.3587 218.252 73.1246 218.432C72.8917 218.605 72.7278 218.912 72.6329 219.351C72.5393 219.785 72.5615 220.134 72.6995 220.4C72.8388 220.66 73.0621 220.823 73.3696 220.889ZM77.9137 222.689C76.8486 222.459 76.4299 221.817 76.6575 220.763L77.0363 219.009L76.6081 218.917C76.3336 218.857 76.2242 218.699 76.2799 218.441C76.3356 218.183 76.5007 218.083 76.7752 218.142L77.2035 218.235L77.3653 217.485C77.44 217.14 77.6503 217.004 77.9962 217.079C78.3366 217.152 78.4695 217.362 78.3948 217.708L78.2329 218.457L79.1059 218.646C79.3804 218.705 79.4898 218.864 79.4341 219.122C79.3784 219.38 79.2133 219.479 78.9387 219.42L78.0658 219.231L77.6994 220.928C77.6425 221.191 77.6575 221.401 77.7443 221.558C77.8311 221.715 78.0036 221.821 78.2616 221.877C78.355 221.897 78.4391 221.906 78.514 221.905C78.589 221.904 78.6545 221.907 78.7106 221.913C78.7776 221.922 78.8278 221.956 78.8611 222.015C78.8955 222.068 78.8973 222.166 78.8665 222.309C78.8428 222.419 78.8022 222.513 78.7448 222.593C78.6941 222.668 78.6185 222.712 78.518 222.725C78.4419 222.732 78.3444 222.731 78.2256 222.722C78.1055 222.719 78.0016 222.708 77.9137 222.689ZM81.1743 223.393C80.7186 223.295 80.3444 223.125 80.0517 222.884C79.759 222.643 79.5559 222.346 79.4423 221.994C79.3342 221.643 79.3264 221.253 79.4189 220.825C79.509 220.408 79.6729 220.061 79.9107 219.785C80.154 219.51 80.4455 219.317 80.7855 219.207C81.132 219.092 81.5002 219.076 81.8901 219.161C82.4611 219.284 82.8721 219.562 83.1233 219.996C83.38 220.431 83.4407 220.961 83.3056 221.587C83.2617 221.79 83.108 221.863 82.8445 221.806L80.3573 221.269C80.2789 222.005 80.613 222.453 81.3597 222.615C81.5024 222.645 81.6652 222.663 81.848 222.668C82.0375 222.669 82.2213 222.643 82.3995 222.589C82.5601 222.538 82.6862 222.539 82.7779 222.593C82.8708 222.642 82.927 222.715 82.9464 222.811C82.9714 222.908 82.9555 223.008 82.8989 223.111C82.8489 223.209 82.7525 223.283 82.6096 223.333C82.3914 223.412 82.1494 223.455 81.8838 223.46C81.6249 223.462 81.3884 223.44 81.1743 223.393ZM81.7801 219.87C81.4781 219.804 81.2136 219.845 80.9866 219.991C80.7597 220.138 80.5926 220.366 80.4854 220.676L82.5113 221.114C82.5617 220.774 82.5235 220.498 82.3967 220.287C82.2766 220.072 82.0711 219.932 81.7801 219.87ZM86.5184 224.53C86.167 224.454 86.0304 224.235 86.1087 223.873L87.1437 219.08C87.2208 218.723 87.4378 218.583 87.7946 218.66L89.7794 219.089C90.4163 219.226 90.8733 219.491 91.1504 219.885C91.4276 220.278 91.5045 220.76 91.3812 221.331C91.2579 221.902 90.9883 222.312 90.5724 222.561C90.1578 222.805 89.632 222.858 88.9951 222.72L87.5292 222.404L87.1628 224.1C87.0846 224.463 86.8698 224.606 86.5184 224.53ZM87.7088 221.572L89.01 221.853C89.7677 222.017 90.2177 221.769 90.3599 221.11C90.501 220.457 90.1927 220.048 89.4351 219.885L88.1339 219.604L87.7088 221.572ZM92.8888 225.923C92.4715 225.833 92.1275 225.669 91.8568 225.433C91.5861 225.196 91.3994 224.903 91.2968 224.553C91.1954 224.198 91.1909 223.807 91.2834 223.378C91.3758 222.95 91.541 222.598 91.7788 222.322C92.0165 222.045 92.3075 221.855 92.6518 221.752C92.996 221.648 93.3767 221.641 93.794 221.731C94.2112 221.821 94.5552 221.984 94.8259 222.221C95.0966 222.458 95.2833 222.751 95.3859 223.101C95.4886 223.45 95.4936 223.839 95.4011 224.267C95.3087 224.696 95.1429 225.051 94.904 225.332C94.6662 225.609 94.3752 225.799 94.031 225.902C93.6868 226.006 93.306 226.013 92.8888 225.923ZM93.0577 225.141C93.3652 225.207 93.6359 225.15 93.87 224.971C94.1053 224.786 94.2698 224.477 94.3635 224.043C94.4583 223.604 94.4355 223.257 94.2951 223.003C94.1558 222.743 93.9325 222.58 93.625 222.513C93.3176 222.447 93.0468 222.503 92.8127 222.683C92.5798 222.857 92.4159 223.163 92.321 223.602C92.2274 224.036 92.2496 224.386 92.3876 224.651C92.5269 224.911 92.7502 225.074 93.0577 225.141ZM97.2715 226.869C97.0354 226.818 96.7909 226.74 96.5381 226.633C96.2852 226.527 96.0675 226.391 95.8849 226.225C95.7839 226.134 95.7297 226.039 95.7224 225.94C95.7163 225.835 95.7386 225.745 95.7893 225.67C95.8467 225.59 95.9207 225.54 96.0114 225.52C96.1075 225.5 96.2073 225.53 96.3108 225.61C96.5079 225.762 96.6977 225.881 96.8804 225.966C97.0643 226.046 97.2496 226.106 97.4362 226.146C97.6998 226.203 97.9042 226.201 98.0494 226.141C98.2013 226.076 98.2933 225.969 98.3253 225.821C98.3751 225.591 98.2369 225.406 97.9107 225.266L97.121 224.932C96.4522 224.65 96.1818 224.212 96.3098 223.619C96.3667 223.355 96.4873 223.143 96.6715 222.982C96.8613 222.821 97.0964 222.717 97.377 222.668C97.6576 222.62 97.9653 222.632 98.3002 222.704C98.7834 222.808 99.1913 223.009 99.5239 223.304C99.6163 223.382 99.6601 223.472 99.6553 223.574C99.6571 223.672 99.6265 223.76 99.5636 223.839C99.5074 223.913 99.4312 223.96 99.3351 223.979C99.2401 223.993 99.1409 223.96 99.0375 223.88C98.8862 223.756 98.7352 223.657 98.5842 223.584C98.4388 223.513 98.2947 223.461 98.152 223.431C97.8829 223.372 97.6725 223.376 97.5205 223.441C97.3741 223.507 97.2843 223.617 97.2511 223.77C97.1989 224.012 97.3234 224.194 97.6245 224.317L98.4143 224.651C98.7569 224.794 98.9998 224.973 99.1431 225.187C99.2918 225.403 99.3342 225.66 99.2702 225.956C99.1836 226.357 98.959 226.639 98.5962 226.802C98.2346 226.959 97.7931 226.982 97.2715 226.869ZM101.623 227.809C100.558 227.579 100.139 226.937 100.367 225.883L100.746 224.129L100.317 224.036C100.043 223.977 99.9335 223.818 99.9893 223.56C100.045 223.302 100.21 223.203 100.485 223.262L100.913 223.354L101.075 222.605C101.149 222.259 101.36 222.123 101.706 222.198C102.046 222.272 102.179 222.481 102.104 222.827L101.942 223.577L102.815 223.765C103.09 223.824 103.199 223.983 103.143 224.241C103.088 224.499 102.923 224.599 102.648 224.539L101.775 224.351L101.409 226.047C101.352 226.311 101.367 226.521 101.454 226.678C101.541 226.834 101.713 226.941 101.971 226.996C102.064 227.016 102.149 227.026 102.223 227.025C102.298 227.024 102.364 227.026 102.42 227.033C102.487 227.042 102.537 227.075 102.57 227.134C102.605 227.188 102.607 227.286 102.576 227.429C102.552 227.538 102.512 227.633 102.454 227.713C102.403 227.788 102.328 227.832 102.227 227.845C102.151 227.851 102.054 227.85 101.935 227.842C101.815 227.839 101.711 227.828 101.623 227.809Z" fill="white"/>
<g clip-path="url(#clip2_58_2544)">
<path d="M198.529 264.093L191.718 262.622C190.914 262.448 190.117 262.962 189.944 263.766L187.948 273.009C187.908 273.195 187.977 273.387 188.126 273.504C188.276 273.622 188.479 273.645 188.65 273.562L193.415 271.27L196.809 275.324C196.881 275.411 196.98 275.468 197.086 275.491C197.158 275.507 197.235 275.506 197.31 275.487C197.494 275.442 197.637 275.295 197.677 275.11L199.673 265.867C199.847 265.063 199.333 264.266 198.529 264.093ZM196.919 273.905L193.929 270.335C193.857 270.247 193.758 270.19 193.653 270.168C193.547 270.145 193.434 270.156 193.332 270.205L189.135 272.224L190.917 263.976C190.974 263.708 191.24 263.537 191.508 263.595L198.319 265.066C198.587 265.123 198.758 265.389 198.7 265.657L196.919 273.905Z" fill="black"/>
</g>
<rect width="208.907" height="303.511" rx="17.9039" transform="matrix(0.995487 -0.0948992 0.0949076 0.995486 278.23 127.553)" fill="white"/>
<ellipse rx="7.03387" ry="7.07307" transform="matrix(0.995487 -0.0948992 0.0949076 0.995486 327.056 283.662)" fill="#002947"/>
<rect width="128.368" height="6.18895" transform="matrix(0.995487 -0.0948992 0.0949076 0.995486 341.349 276.083)" fill="#DBDBDB"/>
<rect width="54.5125" height="2.6524" transform="matrix(0.995487 -0.0948992 0.0949076 0.995486 342.188 284.884)" fill="#DBDBDB"/>
<rect width="157.383" height="77.8038" transform="matrix(0.995487 -0.0948992 0.0949076 0.995486 310.992 189.274)" fill="#ECF9FF"/>
<ellipse rx="7.03387" ry="7.07309" transform="matrix(0.995487 -0.0948992 0.0949076 0.995486 338.048 398.961)" fill="#002947"/>
<rect width="128.368" height="6.18891" transform="matrix(0.995487 -0.0948992 0.0949076 0.995486 352.341 391.382)" fill="#DBDBDB"/>
<rect width="54.5125" height="2.6524" transform="matrix(0.995487 -0.0948992 0.0949076 0.995486 353.18 400.183)" fill="#DBDBDB"/>
<rect width="157.383" height="77.8038" transform="matrix(0.995487 -0.0948992 0.0949076 0.995486 321.984 304.573)" fill="#ECF9FF"/>
<ellipse rx="3.04461" ry="3.04447" transform="matrix(0.995487 -0.0948992 0.0949076 0.995486 463.095 146.563)" stroke="#2C2C2C" stroke-width="1.05317"/>
<path d="M468.245 150.816L465.691 148.707" stroke="#2C2C2C" stroke-width="1.05317" stroke-linecap="round"/>
<path d="M443.864 146.852C443.886 145.408 444.991 144.211 446.429 144.074V144.074C447.867 143.937 449.178 144.903 449.473 146.317L449.709 147.45C449.831 148.031 450.076 148.579 450.428 149.056L450.766 149.515C451.155 150.042 450.82 150.792 450.168 150.854L444.038 151.438C443.386 151.5 442.916 150.828 443.198 150.237L443.444 149.722C443.699 149.187 443.836 148.602 443.846 148.009L443.864 146.852Z" stroke="#2C2C2C" stroke-width="1.05317"/>
<path d="M445.66 151.491C445.782 151.858 446.004 152.172 446.291 152.384C446.578 152.596 446.915 152.693 447.248 152.661C447.582 152.63 447.894 152.47 448.136 152.208C448.378 151.946 448.537 151.596 448.587 151.211" stroke="#2C2C2C" stroke-width="1.05317" stroke-linecap="round"/>
<g clip-path="url(#clip3_58_2544)">
<path d="M320.729 155.84C320.451 155.092 319.789 154.545 319.001 154.413C317.574 154.173 311.994 154.705 311.994 154.705C311.994 154.705 306.413 155.236 305.057 155.742C304.309 156.02 303.762 156.683 303.63 157.47C303.39 158.897 303.667 161.801 303.667 161.801C303.667 161.801 303.944 164.704 304.449 166.06C304.727 166.808 305.39 167.355 306.177 167.487C307.604 167.727 313.185 167.195 313.185 167.195C313.185 167.195 318.765 166.663 320.121 166.158C320.869 165.88 321.416 165.217 321.548 164.43C321.789 163.003 321.512 160.099 321.512 160.099C321.512 160.099 321.235 157.196 320.729 155.84Z" fill="#ED1F24"/>
<path d="M311.06 163.797L315.441 160.678L310.55 158.443L311.06 163.797Z" fill="white"/>
<path d="M331.918 163.036C331.991 162.771 332 162.35 331.945 161.771L331.713 159.334C331.659 158.772 331.571 158.367 331.449 158.116C331.326 157.866 331.141 157.753 330.895 157.777C330.657 157.799 330.501 157.945 330.428 158.214C330.355 158.483 330.345 158.898 330.398 159.459L330.631 161.897C330.686 162.475 330.772 162.888 330.89 163.134C331.008 163.38 331.19 163.491 331.437 163.468C331.684 163.444 331.844 163.3 331.918 163.036ZM330.057 164.449C329.681 164.245 329.394 163.899 329.198 163.411C329.001 162.923 328.863 162.262 328.783 161.429L328.675 160.293C328.595 159.451 328.615 158.766 328.737 158.24C328.858 157.713 329.089 157.316 329.428 157.047C329.767 156.779 330.23 156.617 330.817 156.561C331.396 156.505 331.871 156.58 332.243 156.785C332.614 156.99 332.905 157.338 333.115 157.829C333.324 158.32 333.47 158.986 333.55 159.828L333.658 160.964C333.738 161.798 333.723 162.475 333.614 162.996C333.504 163.518 333.284 163.912 332.954 164.18C332.623 164.447 332.156 164.61 331.552 164.667C330.93 164.726 330.432 164.654 330.057 164.449Z" fill="#272727"/>
<path d="M356.775 155.457C356.697 155.576 356.654 155.762 356.648 156.016C356.642 156.27 356.664 156.652 356.713 157.163L356.766 157.724L358.055 157.601L358.001 157.04C357.954 156.538 357.9 156.159 357.842 155.902C357.783 155.646 357.704 155.469 357.604 155.371C357.505 155.274 357.361 155.234 357.174 155.251C356.987 155.269 356.854 155.338 356.775 155.457ZM356.866 158.77L356.904 159.166C356.952 159.668 357.002 160.043 357.056 160.291C357.11 160.539 357.189 160.716 357.293 160.822C357.398 160.928 357.548 160.972 357.744 160.953C358.007 160.928 358.178 160.809 358.257 160.595C358.335 160.382 358.356 160.036 358.319 159.559L359.846 159.504C359.861 159.571 359.874 159.664 359.886 159.783C359.955 160.506 359.808 161.065 359.447 161.46C359.085 161.855 358.543 162.087 357.82 162.156C356.952 162.239 356.318 162.025 355.917 161.514C355.516 161.003 355.261 160.177 355.153 159.037L355.023 157.671C354.911 156.497 355.01 155.623 355.32 155.048C355.63 154.474 356.223 154.144 357.1 154.061C357.703 154.003 358.178 154.07 358.522 154.26C358.866 154.451 359.127 154.773 359.303 155.229C359.48 155.684 359.608 156.324 359.686 157.149L359.814 158.489L356.866 158.77Z" fill="#272727"/>
<path d="M325.46 161.617L322.767 154.572L324.515 154.406L325.529 157.618C325.785 158.409 325.983 159.086 326.122 159.648L326.173 159.643C326.194 159.229 326.26 158.532 326.373 157.551L326.786 154.189L328.535 154.022L327.196 161.451L327.526 164.922L325.791 165.088L325.46 161.617Z" fill="#272727"/>
<path d="M338.917 155.943L339.663 163.765L338.285 163.897L338.04 162.954L338.002 162.958C337.697 163.717 337.17 164.132 336.421 164.203C335.902 164.253 335.503 164.119 335.224 163.802C334.945 163.486 334.771 162.965 334.702 162.242L334.145 156.398L335.906 156.23L336.453 161.972C336.486 162.321 336.548 162.566 336.639 162.708C336.73 162.85 336.865 162.912 337.043 162.895C337.196 162.88 337.339 162.819 337.47 162.712C337.602 162.605 337.694 162.477 337.749 162.325L337.156 156.111L338.917 155.943Z" fill="#272727"/>
<path d="M347.95 155.082L348.696 162.904L347.318 163.035L347.074 162.093L347.036 162.097C346.73 162.856 346.203 163.271 345.454 163.342C344.935 163.391 344.536 163.258 344.257 162.941C343.978 162.624 343.804 162.104 343.735 161.381L343.178 155.537L344.939 155.369L345.486 161.111C345.52 161.46 345.581 161.705 345.672 161.847C345.763 161.988 345.898 162.051 346.076 162.034C346.23 162.019 346.372 161.958 346.503 161.851C346.635 161.744 346.728 161.615 346.782 161.464L346.189 155.25L347.95 155.082Z" fill="#272727"/>
<path d="M343.563 154.019L341.815 154.186L342.701 163.476L340.978 163.64L340.092 154.35L338.344 154.517L338.209 153.1L343.428 152.603L343.563 154.019Z" fill="#272727"/>
<path d="M352.588 159.121C352.643 159.691 352.662 160.14 352.646 160.468C352.63 160.796 352.573 161.033 352.476 161.179C352.378 161.326 352.235 161.408 352.048 161.426C351.904 161.44 351.766 161.419 351.637 161.362C351.507 161.306 351.397 161.214 351.307 161.085L350.884 156.644C350.923 156.426 351.009 156.241 351.141 156.091C351.272 155.942 351.423 155.859 351.593 155.842C351.772 155.825 351.917 155.882 352.028 156.013C352.139 156.144 352.23 156.374 352.3 156.702C352.37 157.03 352.434 157.501 352.492 158.113L352.588 159.121ZM353.898 155.777C353.745 155.293 353.539 154.953 353.279 154.754C353.02 154.555 352.682 154.476 352.265 154.516C351.942 154.547 351.649 154.667 351.385 154.877C351.122 155.086 350.928 155.347 350.803 155.66L350.79 155.661L350.397 151.539L348.7 151.701L349.759 162.803L351.213 162.664L351.322 161.907L351.36 161.903C351.521 162.154 351.745 162.343 352.032 162.47C352.319 162.597 352.628 162.645 352.96 162.614C353.555 162.557 353.967 162.241 354.196 161.665C354.424 161.09 354.483 160.219 354.372 159.054L354.254 157.816C354.17 156.94 354.052 156.26 353.898 155.777Z" fill="#272727"/>
</g>
<rect width="52.0948" height="52.0957" transform="matrix(-0.56624 -0.82424 0.824264 -0.566206 325.527 116.463)" fill="white" fill-opacity="0.63"/>
<g filter="url(#filter0_d_58_2544)">
<path d="M324.517 76.8882L326.784 88.7083C327.927 94.6645 328.498 97.6426 330.236 97.8788L330.26 97.882C332 98.1008 333.318 95.37 335.955 89.9084L335.955 89.9084C336.544 88.6871 336.839 88.0765 337.37 87.71L337.378 87.7043C337.911 87.34 338.587 87.2839 339.938 87.1718C345.983 86.6704 349.005 86.4197 349.425 84.7172L349.43 84.6934C349.833 82.9869 347.258 81.3852 342.108 78.1818L331.888 71.8248C327.827 69.2987 325.797 68.0357 324.481 68.9394C323.166 69.843 323.616 72.1914 324.517 76.8882Z" fill="url(#paint0_linear_58_2544)"/>
</g>
<path d="M399.462 51.8531C402.066 52.4838 407.315 55.1545 407.477 60.7924" stroke="#002947" stroke-width="2.10634" stroke-linecap="round"/>
<path d="M457.436 130.361C459.342 131.246 463.525 134.465 465.008 140.253" stroke="#002947" stroke-width="2.10634" stroke-linecap="round"/>
<path d="M460.213 120.642C463.493 120.234 472.684 120.99 483.209 127.271" stroke="#002947" stroke-width="2.10634" stroke-linecap="round"/>
<path d="M395.64 82.5257C393.742 78.8338 397.929 74.5794 401.186 72.2239C402.287 75.5415 402.895 78.8172 403.13 81.3706C403.396 84.2626 397.831 86.7888 395.64 82.5257Z" fill="white" fill-opacity="0.63"/>
<path d="M470.114 87.9705C470.523 87.5567 470.518 86.8899 470.105 86.4812C469.691 86.0724 469.024 86.0765 468.615 86.4904L470.114 87.9705ZM444.347 124.859L443.296 124.782L445.367 125.119L444.347 124.859ZM422.66 65.5291L422.725 64.4779L422.697 64.4762L422.669 64.4759L422.66 65.5291ZM402.605 71.2762L403.154 72.1753L403.21 72.1411L403.261 72.1003L402.605 71.2762ZM395.64 82.5257L396.576 82.0443L395.64 82.5257ZM403.13 81.3706L404.179 81.2742L403.13 81.3706ZM382.34 56.3518C381.97 56.8003 382.033 57.4641 382.482 57.8344L389.791 63.869C390.24 64.2393 390.904 64.1759 391.274 63.7274C391.644 63.2789 391.581 62.6151 391.132 62.2448L384.635 56.8807L389.999 50.3837C390.369 49.9351 390.306 49.2713 389.857 48.901C389.409 48.5307 388.745 48.5941 388.375 49.0426L382.34 56.3518ZM468.615 86.4904C465.116 90.0331 459.671 96.1654 454.671 103.086C449.687 109.983 445.068 117.768 443.326 124.599L445.367 125.119C447.007 118.687 451.431 111.166 456.378 104.319C461.309 97.495 466.683 91.4444 470.114 87.9705L468.615 86.4904ZM445.397 124.936C446.105 115.251 445.868 100.621 442.827 88.2106C441.306 82.0082 439.067 76.2812 435.831 72.0013C432.575 67.6961 428.281 64.8228 422.725 64.4779L422.595 66.5802C427.403 66.8787 431.176 69.3382 434.15 73.2716C437.144 77.2304 439.294 82.6478 440.781 88.712C443.752 100.835 443.995 115.227 443.296 124.782L445.397 124.936ZM422.669 64.4759C420.474 64.4576 416.85 64.7317 413.018 65.6066C409.198 66.4786 405.068 67.9704 401.95 70.4521L403.261 72.1003C406.027 69.8994 409.808 68.4999 413.486 67.6601C417.152 66.8232 420.613 66.5651 422.651 66.5822L422.669 64.4759ZM402.057 70.3771C401.599 70.6565 401.094 70.9908 400.569 71.3705L401.804 73.0773C402.286 72.7283 402.745 72.4246 403.154 72.1753L402.057 70.3771ZM400.569 71.3705C398.889 72.5855 396.918 74.3236 395.604 76.2882C394.301 78.2381 393.496 80.6587 394.703 83.0072L396.576 82.0443C395.886 80.7008 396.226 79.1483 397.355 77.4591C398.475 75.7847 400.226 74.2179 401.804 73.0773L400.569 71.3705ZM394.703 83.0072C395.36 84.2848 396.308 85.116 397.394 85.5334C398.464 85.945 399.593 85.9266 400.592 85.645C401.586 85.3646 402.502 84.8098 403.163 84.0747C403.824 83.3398 404.279 82.3612 404.179 81.2742L402.081 81.467C402.114 81.826 401.973 82.2477 401.597 82.6666C401.22 83.0853 400.658 83.4379 400.02 83.6177C399.387 83.7963 398.731 83.7908 398.15 83.5674C397.584 83.35 397.015 82.8982 396.576 82.0443L394.703 83.0072ZM404.179 81.2742C403.937 78.6456 403.313 75.2906 402.186 71.8924L400.187 72.5555C401.261 75.7923 401.853 78.9888 402.081 81.467L404.179 81.2742ZM402.186 71.8924C400.839 67.8299 398.744 63.6224 395.646 60.5381C392.517 57.4232 388.369 55.4661 383.052 55.9739L383.253 58.0707C387.863 57.6303 391.413 59.2965 394.16 62.0308C396.937 64.7956 398.896 68.6631 400.187 72.5555L402.186 71.8924Z" fill="#002947"/>
<defs>
<filter id="filter0_d_58_2544" x="307.861" y="68.6479" width="57.4086" height="66.1072" filterUnits="userSpaceOnUse" color-interpolation-filters="sRGB">
<feFlood flood-opacity="0" result="BackgroundImageFix"/>
<feColorMatrix in="SourceAlpha" type="matrix" values="0 0 0 0 0 0 0 0 0 0 0 0 0 0 0 0 0 0 127 0" result="hardAlpha"/>
<feOffset dy="21.0634"/>
<feGaussianBlur stdDeviation="7.89877"/>
<feComposite in2="hardAlpha" operator="out"/>
<feColorMatrix type="matrix" values="0 0 0 0 0.882353 0 0 0 0 0.541176 0 0 0 0 0.0431373 0 0 0 0.22 0"/>
<feBlend mode="normal" in2="BackgroundImageFix" result="effect1_dropShadow_58_2544"/>
<feBlend mode="normal" in="SourceGraphic" in2="effect1_dropShadow_58_2544" result="shape"/>
</filter>
<linearGradient id="paint0_linear_58_2544" x1="350.363" y1="103.044" x2="300.246" y2="57.1402" gradientUnits="userSpaceOnUse">
<stop stop-color="#E18A0B"/>
<stop offset="1" stop-color="#FFFCCD"/>
</linearGradient>
<clipPath id="clip0_58_2544">
<rect width="12.755" height="11.2412" fill="white" transform="matrix(0.977472 0.211063 -0.211081 0.977468 76.4736 238.067)"/>
</clipPath>
<clipPath id="clip1_58_2544">
<rect width="11.2416" height="11.2412" fill="white" transform="matrix(0.977472 0.211063 -0.211081 0.977468 59.9912 234.508)"/>
</clipPath>
<clipPath id="clip2_58_2544">
<rect width="15.9256" height="15.925" fill="white" transform="matrix(0.977472 0.211063 -0.211081 0.977468 187.865 259.244)"/>
</clipPath>
<clipPath id="clip3_58_2544">
<rect width="56.2081" height="56.2057" fill="white" transform="matrix(0.995487 -0.0948992 0.0949076 0.995486 301 133.825)"/>
</clipPath>
</defs>
</svg>
