<svg width="110" height="110" viewBox="0 0 110 110" fill="none" xmlns="http://www.w3.org/2000/svg">
<path d="M18.8544 92.4103C20.508 92.4103 21.8485 91.4961 21.8485 90.3684C21.8485 89.2407 20.508 88.3265 18.8544 88.3265C17.2008 88.3265 15.8604 89.2407 15.8604 90.3684C15.8604 91.4961 17.2008 92.4103 18.8544 92.4103Z" fill="#FF6266"/>
<path d="M106.562 80.2123L105.438 79.5523C105.353 79.5025 96.7639 74.4064 94.6292 68.2223L94.1531 66.8525L93.2731 68.0023C93.2456 68.0384 92.0253 69.5475 88.6102 71.3178C86.0819 56.9267 77.4813 39.7461 66.1788 32.4208C69.41 32.682 72.6516 32.4139 75.7797 31.2761C77.6634 30.592 76.8505 27.5223 74.9495 28.2167C72.3852 29.15 69.8156 29.4044 67.2512 29.2737C73.547 23.5039 78.4902 14.6609 78.4902 8.195C78.4902 6.64125 78.4902 3.74859 76.187 3.74859C75.2623 3.74859 74.5147 4.32609 73.4817 5.12359C71.897 6.34562 69.5045 8.195 65.9897 8.195C64.6508 8.195 62.1998 6.78219 60.2302 5.64781C57.8497 4.27797 56.3286 3.4375 55.0498 3.4375C52.9323 3.4375 49.8197 5.14937 47.0731 6.66016C45.9559 7.27375 44.428 8.11594 44.1117 8.19672C40.1311 8.19672 37.8194 6.36109 36.2862 5.14594C35.3925 4.43437 34.7445 3.91875 33.88 3.91875C31.6147 3.91875 31.6147 6.63609 31.6147 9.78312C31.6147 15.8572 36.2416 23.8752 42.3002 29.2634C38.4828 29.5367 34.7187 30.69 32.0736 33.2527C30.6127 34.6655 32.8264 36.9067 34.2822 35.4973C36.4805 33.3661 39.3628 32.4534 42.4462 32.2764C42.5339 32.5909 42.6405 32.9003 42.7711 33.2045C29.853 42.4875 20.6766 64.5305 20.6766 79.4114C20.6766 80.8792 20.79 82.2078 20.9653 83.4591C17.6344 81.9792 16.4192 80.6816 16.3952 80.6523L15.5083 79.6297L15.0717 80.9188C13.1416 86.5975 4.75062 91.5234 4.66641 91.5733L3.4375 92.2866L4.68703 92.962C5.12531 93.1992 5.56016 93.4072 5.99844 93.6323L5.20781 94.1806L5.62547 99.4056L38.3728 106.562L50.7891 98.6202C52.042 98.627 53.3105 98.6305 54.6012 98.6305L69.1144 106.562L101.924 96.25V90.7345L101.056 90.2137C101.489 89.9388 101.922 89.6586 102.353 89.3699L103.503 88.6016L103.25 88.4778L104.713 88.0773L104.961 82.3436L104.115 81.7438C104.565 81.4739 105.014 81.1989 105.464 80.9136L106.562 80.2123ZM34.7411 9.78312C34.7411 9.02 34.7514 8.42531 34.7669 7.96297C35.0298 8.16922 35.3358 8.39437 35.6623 8.62641C36.6644 11.0258 38.5602 14.4805 41.7742 16.6564C45.6792 19.3033 45.1602 16.2611 47.2433 13.4836C49.3264 10.7078 50.7358 9.25375 54.2248 16.3934C55.7459 19.5061 58.2811 10.8075 60.6908 9.53734C61.3284 9.88453 61.9644 10.2077 62.5883 10.4827C66.9092 17.5089 68.9116 15.3175 72.7495 9.47719C73.8048 8.85844 74.6711 8.195 75.3603 7.66391C75.3638 7.82375 75.3672 8.00078 75.3672 8.19844C75.3672 13.7156 70.8589 21.6287 65.3383 26.7902C65.0776 26.1277 64.7043 25.5154 64.2348 24.9803C62.0056 22.4555 58.5217 25.2553 56.87 27.0927C53.9395 26.1508 49.1648 23.5572 46.0539 25.0422C45.2791 25.4016 44.5675 25.8839 43.9467 26.4705C38.8592 21.8333 34.7411 15.1388 34.7411 9.78312ZM62.5917 28.6447C61.8211 28.4813 61.0549 28.2979 60.2938 28.0947C61.2528 27.268 62.1328 26.9792 62.5023 28.2081C62.5419 28.3422 62.5659 28.4952 62.5917 28.6447ZM49.5292 29.712C48.9603 29.6038 48.3759 29.5058 47.7744 29.4284C47.3182 29.1425 46.8717 28.8416 46.4355 28.5261C48.0064 27.4725 50.7152 28.0328 53.3036 28.9111C52.0266 29.04 50.7667 29.3184 49.5292 29.712ZM50.3095 34.2495C49.347 34.4902 48.2986 34.3939 47.3928 34.033C47.7606 33.8388 48.1319 33.6703 48.5031 33.5002C49.1047 33.7906 49.7062 34.033 50.3095 34.2495ZM18.5178 96.9014C14.4184 95.7142 10.4406 94.1414 6.63781 92.2041C8.97016 90.6709 14.0508 86.9636 16.1167 82.5086C17.533 83.6206 20.802 85.6488 27.1683 87.2059C27.06 87.3812 26.9277 87.5686 26.8005 87.7525C21.3658 86.3294 18.2755 84.5298 18.2256 84.4989L17.4763 84.052L17.117 84.8547C16.6444 85.9066 15.5358 86.0647 14.9188 86.0647C14.7469 86.0647 14.6317 86.0527 14.6162 86.0509L14.0027 85.9616L13.7792 86.5494C13.322 87.7491 11.4452 89.3166 10.7577 89.8202L9.60953 90.6623L10.9227 91.2003C11.4108 91.3997 11.5431 91.5836 11.55 91.6317C11.5672 91.7503 11.3592 92.0631 11.1375 92.2436L10.1372 93.0497L11.3008 93.5877C13.6847 94.6877 16.3848 95.5986 19.085 96.3497C18.8702 96.5611 18.6845 96.7416 18.5178 96.9014ZM32.3778 90.4973C34.7806 90.8342 37.443 91.0473 40.3511 91.0473H40.3528C40.9578 91.0473 41.5714 91.037 42.197 91.0181C42.2387 91.1478 42.2983 91.271 42.3741 91.3842C42.527 91.6162 42.7333 91.8087 42.9945 91.9583L38.6083 95.7069C38.5247 95.7033 38.441 95.7015 38.3573 95.7017C36.4031 95.7017 34.9456 96.4202 34.2461 97.6989C31.5957 97.3608 28.9576 96.9326 26.3364 96.415C28.4435 94.54 30.4596 92.5652 32.3778 90.4973ZM12.8717 92.5547C13.0436 92.2298 13.1553 91.8363 13.0952 91.4066C13.038 91.0189 12.8522 90.6617 12.5675 90.3925C13.3392 89.7308 14.4031 88.7098 14.9875 87.6528C16.3161 87.6339 17.4127 87.1303 18.1036 86.24C19.2672 86.8484 21.8883 88.0773 25.7606 89.143C24.1777 91.1281 22.0447 93.3797 20.3861 95.0537C17.8011 94.3697 15.1972 93.5447 12.8717 92.5547ZM37.3656 99.7889L37.0133 99.7906C35.5334 99.7906 30.6298 99.6703 24.1519 98.3211C24.3787 98.1286 24.6142 97.9309 24.8325 97.7419C30.0884 98.8402 34.3269 99.3111 34.6448 99.3472L35.2739 99.4142L35.4681 98.8041C35.8927 97.4875 37.4584 97.2933 38.3556 97.2933C38.6014 97.2933 38.7647 97.3088 38.7836 97.3105L39.117 97.3466L46.7362 90.8359L44.6995 90.7689C44.0189 90.7448 43.7319 90.5919 43.6614 90.487L44.0928 89.3578L42.9 89.4077C42.0303 89.4455 41.1812 89.4644 40.3511 89.4644H40.3494C37.95 89.4644 35.7242 89.3062 33.6669 89.057L34.1447 88.4933C38.2972 89.0484 43.2695 89.3905 49.2731 89.3475C47.8397 91.3584 44.2647 95.633 37.3656 99.7889ZM54.5944 92.3209V95.4577C53.6164 95.4577 52.6642 95.4542 51.7327 95.4473L51.4525 91.917L49.1253 92.1061C50.6928 90.2533 51.3614 89.0175 51.4216 88.9058L52.0523 87.713L50.7203 87.737C37.9706 87.9708 29.6553 86.4514 24.4062 84.7636C24.023 83.2133 23.8012 81.4602 23.8012 79.4131C23.8012 65.4517 32.7233 44.3489 44.5689 35.7964C46.6675 37.8262 49.8506 38.7148 52.8756 36.74C53.5391 36.3069 54.1166 35.7397 54.658 35.1364C54.7869 35.1398 54.9192 35.1691 55.0498 35.1691C55.483 35.1691 55.923 35.133 56.3612 35.078C56.9164 35.2997 57.4595 35.5231 57.9631 35.7448C60.3745 36.807 62.4336 36.147 63.8395 34.6827C74.69 41.2483 83.3834 58.6162 85.6711 72.655C80.7108 74.6384 72.8423 76.5738 60.7664 76.9141C63.1486 75.5528 64.9361 73.2634 64.2933 70.2556C63.6178 67.0759 60.9606 66.1822 58.2089 66.0361C58.202 64.5425 58.202 63.0523 58.2123 61.5588C59.0562 61.9317 59.8658 62.3614 60.6014 62.8203C61.9008 63.6367 63.0764 61.5209 61.7856 60.7045C60.6664 60.0009 59.4719 59.425 58.2244 58.9875C58.2416 57.2584 58.2502 55.5328 58.2502 53.8072C58.2519 52.2259 55.9023 52.2259 55.9023 53.8072C55.9023 55.3248 55.892 56.8408 55.8783 58.355C54.6277 58.1371 53.3508 58.1156 52.0936 58.2914C51.8892 57.1537 51.6415 56.0243 51.3511 54.9055C50.9627 53.3827 48.6939 54.0272 49.0875 55.5552C49.3762 56.6534 49.6117 57.7466 49.8059 58.8552C49.7062 58.893 49.598 58.9119 49.5 58.9566C46.3169 60.2164 44.3747 63.4287 46.7036 66.4245C47.7881 67.8202 49.2061 68.3839 50.7581 68.5713C50.8423 70.6389 50.8956 72.7083 50.9558 74.7742C49.9159 74.0988 48.9689 73.2325 48.1113 72.3164C47.0491 71.1958 45.3905 72.9266 46.4509 74.0455C47.893 75.5803 49.4072 76.7405 51.0486 77.483C51.1225 79.2481 51.2273 81.0184 51.3992 82.775C51.5505 84.3339 53.9017 84.3425 53.7487 82.775C53.6039 81.2557 53.4967 79.7329 53.4273 78.2083C54.3211 78.363 55.2595 78.4025 56.2564 78.308C56.3681 79.9339 56.4987 81.5598 56.6844 83.1858C56.7909 84.1173 57.6813 84.4834 58.3378 84.2944L58.1917 87.67C57.157 87.7628 56.1017 87.8487 55.0017 87.9209L53.692 88.0069L54.3898 89.1344C54.4603 89.2478 55.2527 90.5008 57.0212 92.3244H54.5944V92.3209ZM97.3706 81.0081C95.2102 82.0239 92.4773 82.9555 89.693 83.7684C87.9811 81.9998 85.7914 79.64 84.1569 77.5466C87.7989 76.4431 89.8373 75.3053 90.7569 74.6917C91.4839 75.3328 92.4464 75.6662 93.5859 75.6645C93.9641 75.6645 94.2992 75.6284 94.557 75.5872C95.382 76.6562 96.7123 77.8903 97.5442 78.6277C97.1506 79.0316 96.9598 79.4784 96.9753 79.9614C96.9891 80.3739 97.1541 80.7245 97.3706 81.0081ZM85.073 86.6559C85.4236 86.9653 85.7862 87.2816 86.1558 87.6012C79.188 89.4489 74.0025 89.65 72.8733 89.6689C65.658 85.2672 61.918 80.6094 60.4759 78.5125C66.5139 78.3613 71.5052 77.8147 75.668 77.0619C75.8373 77.2698 76.0086 77.4761 76.1819 77.6806C72.836 78.2017 69.4638 78.5362 66.0808 78.6827L64.6937 78.7411L65.4569 79.9081C65.4552 79.9098 65.3005 80.1986 64.2761 80.398L62.6106 80.7228L70.7988 87.352L71.1803 87.2489C71.1889 87.2472 71.9108 87.053 72.7839 87.053C74.0437 87.053 74.9048 87.4362 75.338 88.1856L75.613 88.66L76.1475 88.5655C79.1413 88.0197 82.1179 87.3829 85.073 86.6559ZM60.8438 81.6045L58.8878 81.498C58.7967 80.5217 58.7056 79.5455 58.6369 78.5692C58.9806 79.1398 59.6853 80.2123 60.8438 81.6045ZM58.4238 75.3122C58.311 72.9986 58.2428 70.683 58.2192 68.3667C58.5011 68.377 58.7795 68.4028 59.0442 68.4406C62.083 68.9013 62.877 72.2803 60.5052 74.1813C59.8864 74.6711 59.1731 75.0303 58.4238 75.3122ZM76.3658 86.9172C75.5958 85.9667 74.3703 85.4683 72.7856 85.4683C72.1239 85.4683 71.5413 85.5577 71.1734 85.6298L66.0258 81.4584C66.4538 81.2127 66.7425 80.9016 66.9006 80.52C66.9396 80.425 66.9695 80.3266 66.99 80.2261C71.0703 80.0027 74.5078 79.5953 77.4142 79.0969C78.8236 80.6695 80.8947 82.8386 83.6413 85.36C80.2673 86.1627 77.4538 86.7127 76.3658 86.9172ZM55.868 68.4286C55.9006 70.9191 55.9625 73.4164 56.0948 75.9052C55.8731 75.9395 55.6548 75.9825 55.4366 76.0048C54.6975 76.0891 53.9963 76.0272 53.3294 75.8587C53.2452 73.4525 53.1902 71.0411 53.0991 68.6331C54.0238 68.5902 54.9605 68.4991 55.868 68.4286ZM52.9805 66.2544C52.8731 64.3658 52.6954 62.4819 52.4477 60.6066C53.5869 60.45 54.7453 60.5089 55.8628 60.7802C55.8505 62.5373 55.8476 64.2944 55.8542 66.0516C55.0997 66.0928 54.383 66.165 53.7522 66.2217C53.4954 66.2417 53.238 66.2526 52.9805 66.2544ZM50.6223 65.9536C50.4762 65.9141 50.3319 65.8831 50.1823 65.8333C49.4946 65.6002 48.872 65.2073 48.3656 64.6869C46.8978 63.317 48.9122 61.973 50.1823 61.3353C50.3817 62.865 50.5192 64.4084 50.6223 65.9536ZM69.5922 99.4108C62.1311 95.5986 58.1281 91.3619 56.5383 89.3991C57.6813 89.3131 58.7623 89.21 59.8331 89.1017L72.0672 97.0423L98.8969 89.6723C85.0609 98.0117 71.3917 99.2819 69.5922 99.4108ZM91.7503 85.8498C91.5303 85.6298 91.2673 85.3686 90.9562 85.0541C94.0087 84.1294 96.9616 83.0569 99.1633 81.8778L100.502 81.1577L99.1444 80.4667C98.8402 80.3103 98.5428 80.0233 98.5377 79.915C98.5411 79.8737 98.6614 79.6537 99.1822 79.3547L100.176 78.7841L99.2922 78.0484C99.2647 78.0261 96.5095 75.7384 95.5419 74.2655L95.2222 73.7842L94.6739 73.9441C94.6687 73.9441 94.1978 74.0798 93.5859 74.0798C92.6406 74.0816 91.9325 73.7722 91.4787 73.1637L90.9769 72.4986L90.3478 73.04C90.3152 73.0675 88.3678 74.6642 83.1445 76.1733C82.9725 75.9255 82.8069 75.6733 82.6478 75.417C88.9814 73.4972 92.2178 71.1734 93.6203 69.9016C95.8719 74.7725 101.233 78.6964 103.56 80.2347C99.8212 82.497 95.8649 84.3782 91.7503 85.8498Z" fill="#FF6266"/>
<path d="M76.2784 80.9823C74.5648 80.5165 72.6312 80.8345 71.954 81.6853C71.2819 82.5395 72.131 83.6154 73.8429 84.0846C75.5582 84.5504 77.4901 84.2307 78.1673 83.3782C78.8393 82.524 77.9937 81.4515 76.2784 80.9823Z" fill="#FF6266"/>
</svg>
