<svg width="110" height="110" viewBox="0 0 110 110" fill="none" xmlns="http://www.w3.org/2000/svg">
<path d="M55.0003 9.16663C29.6866 9.16663 9.16699 29.6862 9.16699 55C9.16699 80.3137 29.6866 100.833 55.0003 100.833C80.3141 100.833 100.834 80.3137 100.834 55C100.834 29.6862 80.3141 9.16663 55.0003 9.16663Z" stroke="#FF6266" stroke-width="6.875" stroke-linecap="round" stroke-linejoin="round"/>
<path d="M19.5762 84.0858C19.5762 84.0858 29.7924 71.0416 55.0008 71.0416C80.2091 71.0416 90.4299 84.0858 90.4299 84.0858" stroke="#FF6266" stroke-width="6.875" stroke-linecap="round" stroke-linejoin="round"/>
<path d="M55 55C58.6467 55 62.1441 53.5513 64.7227 50.9727C67.3013 48.3941 68.75 44.8967 68.75 41.25C68.75 37.6033 67.3013 34.1059 64.7227 31.5273C62.1441 28.9487 58.6467 27.5 55 27.5C51.3533 27.5 47.8559 28.9487 45.2773 31.5273C42.6987 34.1059 41.25 37.6033 41.25 41.25C41.25 44.8967 42.6987 48.3941 45.2773 50.9727C47.8559 53.5513 51.3533 55 55 55V55Z" stroke="#FF6266" stroke-width="6.875" stroke-linecap="round" stroke-linejoin="round"/>
</svg>
