<svg width="82" height="73" viewBox="0 0 82 73" fill="none" xmlns="http://www.w3.org/2000/svg">
<g clip-path="url(#clip0_108_4437)">
<path d="M78.3438 9.08334H12.4896C10.6083 9.08334 9.08333 10.6084 9.08333 12.4896V13.625H3.40625C1.52501 13.625 0 15.15 0 17.0313V55.6355C0 60.025 3.5584 63.5834 7.94792 63.5834H74.9375C78.7 63.5834 81.75 60.5334 81.75 56.7709V12.4896C81.75 10.6084 80.225 9.08334 78.3438 9.08334ZM7.94792 56.7709C7.64679 56.7709 7.35799 56.6513 7.14506 56.4383C6.93212 56.2254 6.8125 55.9366 6.8125 55.6355V20.4375H9.08333V55.6355C9.08333 55.9366 8.96371 56.2254 8.75078 56.4383C8.53784 56.6513 8.24905 56.7709 7.94792 56.7709ZM41.4427 54.5001H19.8698C18.9292 54.5001 18.1667 53.7375 18.1667 52.7969V51.6615C18.1667 50.721 18.9292 49.9584 19.8698 49.9584H41.4427C42.3833 49.9584 43.1458 50.721 43.1458 51.6615V52.7969C43.1458 53.7375 42.3833 54.5001 41.4427 54.5001ZM70.9635 54.5001H49.3906C48.4501 54.5001 47.6875 53.7375 47.6875 52.7969V51.6615C47.6875 50.721 48.4501 49.9584 49.3906 49.9584H70.9635C71.9041 49.9584 72.6667 50.721 72.6667 51.6615V52.7969C72.6667 53.7375 71.9041 54.5001 70.9635 54.5001ZM41.4427 40.875H19.8698C18.9292 40.875 18.1667 40.1125 18.1667 39.1719V38.0365C18.1667 37.0959 18.9292 36.3334 19.8698 36.3334H41.4427C42.3833 36.3334 43.1458 37.0959 43.1458 38.0365V39.1719C43.1458 40.1125 42.3833 40.875 41.4427 40.875ZM70.9635 40.875H49.3906C48.4501 40.875 47.6875 40.1125 47.6875 39.1719V38.0365C47.6875 37.0959 48.4501 36.3334 49.3906 36.3334H70.9635C71.9041 36.3334 72.6667 37.0959 72.6667 38.0365V39.1719C72.6667 40.1125 71.9041 40.875 70.9635 40.875ZM70.9635 27.25H19.8698C18.9292 27.25 18.1667 26.4875 18.1667 25.5469V19.8698C18.1667 18.9293 18.9292 18.1667 19.8698 18.1667H70.9635C71.9041 18.1667 72.6667 18.9293 72.6667 19.8698V25.5469C72.6667 26.4875 71.9041 27.25 70.9635 27.25Z" fill="#002947" fill-opacity="0.44"/>
</g>
<defs>
<clipPath id="clip0_108_4437">
<rect width="81.75" height="72.6667" fill="white"/>
</clipPath>
</defs>
</svg>
