<svg width="94" height="94" viewBox="0 0 94 94" fill="none" xmlns="http://www.w3.org/2000/svg">
<path d="M89.2999 25.85C89.2999 31.4593 87.0716 36.8389 83.1052 40.8053C79.1388 44.7717 73.7592 47 68.1499 47C62.5406 47 57.161 44.7717 53.1946 40.8053C49.2282 36.8389 46.9999 31.4593 46.9999 25.85C46.9999 20.2406 49.2282 14.861 53.1946 10.8946C57.161 6.92825 62.5406 4.69995 68.1499 4.69995C73.7592 4.69995 79.1388 6.92825 83.1052 10.8946C87.0716 14.861 89.2999 20.2406 89.2999 25.85ZM70.4999 16.45C70.4999 15.8267 70.2523 15.229 69.8116 14.7883C69.3709 14.3475 68.7732 14.1 68.1499 14.1C67.5266 14.1 66.9289 14.3475 66.4882 14.7883C66.0475 15.229 65.7999 15.8267 65.7999 16.45V23.5H58.7499C58.1266 23.5 57.5289 23.7475 57.0882 24.1883C56.6475 24.629 56.3999 25.2267 56.3999 25.85C56.3999 26.4732 56.6475 27.0709 57.0882 27.5117C57.5289 27.9524 58.1266 28.2 58.7499 28.2H65.7999V35.25C65.7999 35.8732 66.0475 36.4709 66.4882 36.9117C66.9289 37.3524 67.5266 37.6 68.1499 37.6C68.7732 37.6 69.3709 37.3524 69.8116 36.9117C70.2523 36.4709 70.4999 35.8732 70.4999 35.25V28.2H77.5499C78.1732 28.2 78.7709 27.9524 79.2116 27.5117C79.6523 27.0709 79.8999 26.4732 79.8999 25.85C79.8999 25.2267 79.6523 24.629 79.2116 24.1883C78.7709 23.7475 78.1732 23.5 77.5499 23.5H70.4999V16.45ZM68.1499 51.7C74.4009 51.7 80.1349 49.4816 84.5999 45.7921V68.15C84.5999 71.2663 83.362 74.2549 81.1584 76.4585C78.9548 78.662 75.9662 79.9 72.8499 79.9H21.1499C18.0336 79.9 15.045 78.662 12.8414 76.4585C10.6378 74.2549 9.3999 71.2663 9.3999 68.15V34.6531L45.8108 56.0757C46.1719 56.2881 46.5833 56.4001 47.0023 56.4001C47.4212 56.4001 47.8326 56.2881 48.1937 56.0757L58.6747 49.9093C61.6924 51.0967 64.907 51.7042 68.1499 51.7ZM21.1499 18.8H43.2728C42.6383 21.0419 42.2999 23.406 42.2999 25.85C42.2999 34.8082 46.8589 42.6995 53.7773 47.3384L46.9999 51.324L9.4704 29.2481C9.79075 26.3747 11.1592 23.7203 13.314 21.7926C15.4689 19.865 18.2587 18.7995 21.1499 18.8Z" fill="#EDA53B"/>
</svg>
