<svg width="94" height="94" viewBox="0 0 94 94" fill="none" xmlns="http://www.w3.org/2000/svg">
<path d="M52.875 29.375C52.875 32.4653 54.0676 35.2735 56.0181 37.3709C61.8661 35.1421 68.234 34.6525 74.354 35.9609C75.3846 34.439 76.0438 32.6966 76.2787 30.8737C76.5135 29.0508 76.3175 27.1982 75.7063 25.4649C75.095 23.7315 74.0857 22.1657 72.7594 20.8933C71.4331 19.6209 69.8267 18.6773 68.0695 18.1385C66.3123 17.5997 64.4531 17.4807 62.6415 17.7909C60.8299 18.1012 59.1164 18.8321 57.6386 19.925C56.1608 21.0178 54.96 22.4421 54.1327 24.0833C53.3053 25.7246 52.8746 27.537 52.875 29.375ZM35.6025 76.375H36.4661C35.6566 73.5076 35.2474 70.542 35.25 67.5625C35.25 59.7487 38.023 52.5812 42.6349 47H20.5625C18.2253 47 15.9838 47.9285 14.3311 49.5811C12.6785 51.2338 11.75 53.4753 11.75 55.8125V60.3656C11.75 71.0699 20.2452 76.375 35.6025 76.375ZM35.25 11.75C39.1454 11.75 42.8812 13.2974 45.6356 16.0519C48.3901 18.8063 49.9375 22.5421 49.9375 26.4375C49.9375 30.3329 48.3901 34.0687 45.6356 36.8231C42.8812 39.5776 39.1454 41.125 35.25 41.125C31.3546 41.125 27.6188 39.5776 24.8644 36.8231C22.1099 34.0687 20.5625 30.3329 20.5625 26.4375C20.5625 22.5421 22.1099 18.8063 24.8644 16.0519C27.6188 13.2974 31.3546 11.75 35.25 11.75ZM94 67.5625C94 74.5742 91.2146 81.2986 86.2566 86.2566C81.2986 91.2146 74.5742 94 67.5625 94C60.5508 94 53.8264 91.2146 48.8684 86.2566C43.9104 81.2986 41.125 74.5742 41.125 67.5625C41.125 60.5508 43.9104 53.8264 48.8684 48.8684C53.8264 43.9104 60.5508 41.125 67.5625 41.125C74.5742 41.125 81.2986 43.9104 86.2566 48.8684C91.2146 53.8264 94 60.5508 94 67.5625ZM70.5 55.8125C70.5 55.0334 70.1905 54.2863 69.6396 53.7354C69.0887 53.1845 68.3416 52.875 67.5625 52.875C66.7834 52.875 66.0363 53.1845 65.4854 53.7354C64.9345 54.2863 64.625 55.0334 64.625 55.8125V64.625H55.8125C55.0334 64.625 54.2863 64.9345 53.7354 65.4854C53.1845 66.0363 52.875 66.7834 52.875 67.5625C52.875 68.3416 53.1845 69.0887 53.7354 69.6396C54.2863 70.1905 55.0334 70.5 55.8125 70.5H64.625V79.3125C64.625 80.0916 64.9345 80.8387 65.4854 81.3896C66.0363 81.9405 66.7834 82.25 67.5625 82.25C68.3416 82.25 69.0887 81.9405 69.6396 81.3896C70.1905 80.8387 70.5 80.0916 70.5 79.3125V70.5H79.3125C80.0916 70.5 80.8387 70.1905 81.3896 69.6396C81.9405 69.0887 82.25 68.3416 82.25 67.5625C82.25 66.7834 81.9405 66.0363 81.3896 65.4854C80.8387 64.9345 80.0916 64.625 79.3125 64.625H70.5V55.8125Z" fill="#4C75F2"/>
</svg>
