<svg width="96" height="96" viewBox="0 0 96 96" fill="none" xmlns="http://www.w3.org/2000/svg">
<path d="M26.0001 40.0001C25.1081 40.0001 24.2521 40.1361 23.4001 40.2601C23.6761 39.3321 23.9601 38.3881 24.4161 37.5401C24.8721 36.3081 25.5841 35.2401 26.2921 34.1641C26.8841 33.0001 27.9281 32.2121 28.6961 31.2161C29.5001 30.2481 30.5961 29.6041 31.4641 28.8001C32.3161 27.9601 33.4321 27.5401 34.3201 26.9481C35.2481 26.4161 36.0561 25.8281 36.9201 25.5481L39.0761 24.6601L40.9721 23.8721L39.0321 16.1201L36.6441 16.6961C35.8801 16.8881 34.9481 17.1121 33.8881 17.3801C32.8041 17.5801 31.6481 18.1281 30.3601 18.6281C29.0881 19.1961 27.6161 19.5801 26.2481 20.4921C24.8721 21.3641 23.2841 22.0921 21.8841 23.2601C20.5281 24.4641 18.8921 25.5081 17.6841 27.0401C16.3641 28.4721 15.0601 29.9761 14.0481 31.6881C12.8761 33.3201 12.0801 35.1121 11.2401 36.8841C10.4801 38.6561 9.86809 40.4681 9.36809 42.2281C8.42009 45.7561 7.99609 49.1081 7.83209 51.9761C7.69609 54.8481 7.77609 57.2361 7.94409 58.9641C8.00409 59.7801 8.11609 60.5721 8.19609 61.1201L8.29609 61.7921L8.40009 61.7681C9.11154 65.0915 10.7493 68.1455 13.1239 70.5769C15.4986 73.0083 18.5131 74.7177 21.8187 75.5074C25.1242 76.2972 28.5859 76.1349 31.8031 75.0395C35.0203 73.944 37.8617 71.9601 39.9985 69.3173C42.1353 66.6744 43.4803 63.4806 43.8778 60.1053C44.2752 56.73 43.709 53.3112 42.2446 50.2442C40.7802 47.1773 38.4774 44.5876 35.6027 42.7747C32.728 40.9619 29.3987 39.9999 26.0001 40.0001ZM70.0001 40.0001C69.1081 40.0001 68.2521 40.1361 67.4001 40.2601C67.6761 39.3321 67.9601 38.3881 68.4161 37.5401C68.8721 36.3081 69.5841 35.2401 70.2921 34.1641C70.8841 33.0001 71.9281 32.2121 72.6961 31.2161C73.5001 30.2481 74.5961 29.6041 75.4641 28.8001C76.3161 27.9601 77.4321 27.5401 78.3201 26.9481C79.2481 26.4161 80.0561 25.8281 80.9201 25.5481L83.0761 24.6601L84.9721 23.8721L83.0321 16.1201L80.6441 16.6961C79.8801 16.8881 78.9481 17.1121 77.8881 17.3801C76.8041 17.5801 75.6481 18.1281 74.3601 18.6281C73.0921 19.2001 71.6161 19.5801 70.2481 20.4961C68.8721 21.3681 67.2841 22.0961 65.8841 23.2641C64.5281 24.4681 62.8921 25.5121 61.6841 27.0401C60.3641 28.4721 59.0601 29.9761 58.0481 31.6881C56.8761 33.3201 56.0801 35.1121 55.2401 36.8841C54.4801 38.6561 53.8681 40.4681 53.3681 42.2281C52.4201 45.7561 51.9961 49.1081 51.8321 51.9761C51.6961 54.8481 51.7761 57.2361 51.9441 58.9641C52.0041 59.7801 52.1161 60.5721 52.1961 61.1201L52.2961 61.7921L52.4001 61.7681C53.1115 65.0915 54.7493 68.1455 57.1239 70.5769C59.4986 73.0083 62.5131 74.7177 65.8186 75.5074C69.1242 76.2972 72.5859 76.1349 75.8031 75.0395C79.0203 73.944 81.8617 71.9601 83.9985 69.3173C86.1353 66.6744 87.4803 63.4806 87.8778 60.1053C88.2752 56.73 87.709 53.3112 86.2446 50.2442C84.7802 47.1773 82.4774 44.5876 79.6027 42.7747C76.728 40.9619 73.3987 39.9999 70.0001 40.0001Z" fill="#002947" fill-opacity="0.71"/>
</svg>
