<svg width="70" height="56" viewBox="0 0 70 56" fill="none" xmlns="http://www.w3.org/2000/svg">
<path d="M16.8 5.6C16.8 4.48609 17.2425 3.4178 18.0302 2.63015C18.8178 1.8425 19.8861 1.4 21 1.4H65.8C66.9139 1.4 67.9822 1.8425 68.7698 2.63015C69.5575 3.4178 70 4.48609 70 5.6C70 6.71391 69.5575 7.7822 68.7698 8.56985C67.9822 9.3575 66.9139 9.8 65.8 9.8H21C19.8861 9.8 18.8178 9.3575 18.0302 8.56985C17.2425 7.7822 16.8 6.71391 16.8 5.6ZM65.8 23.8H21C19.8861 23.8 18.8178 24.2425 18.0302 25.0302C17.2425 25.8178 16.8 26.8861 16.8 28C16.8 29.1139 17.2425 30.1822 18.0302 30.9698C18.8178 31.7575 19.8861 32.2 21 32.2H65.8C66.9139 32.2 67.9822 31.7575 68.7698 30.9698C69.5575 30.1822 70 29.1139 70 28C70 26.8861 69.5575 25.8178 68.7698 25.0302C67.9822 24.2425 66.9139 23.8 65.8 23.8ZM65.8 46.2H21C19.8861 46.2 18.8178 46.6425 18.0302 47.4302C17.2425 48.2178 16.8 49.2861 16.8 50.4C16.8 51.5139 17.2425 52.5822 18.0302 53.3699C18.8178 54.1575 19.8861 54.6 21 54.6H65.8C66.9139 54.6 67.9822 54.1575 68.7698 53.3699C69.5575 52.5822 70 51.5139 70 50.4C70 49.2861 69.5575 48.2178 68.7698 47.4302C67.9822 46.6425 66.9139 46.2 65.8 46.2ZM5.6 22.4C4.49243 22.4 3.40972 22.7284 2.48881 23.3438C1.56789 23.9591 0.850128 24.8337 0.426277 25.857C0.00242637 26.8802 -0.108472 28.0062 0.107605 29.0925C0.323682 30.1788 0.85703 31.1766 1.6402 31.9598C2.42338 32.743 3.4212 33.2763 4.5075 33.4924C5.59379 33.7085 6.71976 33.5976 7.74303 33.1737C8.7663 32.7499 9.6409 32.0321 10.2562 31.1112C10.8716 30.1903 11.2 29.1076 11.2 28C11.2 26.5148 10.61 25.0904 9.5598 24.0402C8.5096 22.99 7.08522 22.4 5.6 22.4ZM5.6 0C4.49243 0 3.40972 0.328435 2.48881 0.943771C1.56789 1.55911 0.850128 2.43371 0.426277 3.45697C0.00242637 4.48024 -0.108472 5.60621 0.107605 6.69251C0.323682 7.7788 0.85703 8.77662 1.6402 9.5598C2.42338 10.343 3.4212 10.8763 4.5075 11.0924C5.59379 11.3085 6.71976 11.1976 7.74303 10.7737C8.7663 10.3499 9.6409 9.63211 10.2562 8.71119C10.8716 7.79028 11.2 6.70758 11.2 5.6C11.2 4.11479 10.61 2.69041 9.5598 1.6402C8.5096 0.589998 7.08522 0 5.6 0ZM5.6 44.8C4.49243 44.8 3.40972 45.1284 2.48881 45.7438C1.56789 46.3591 0.850128 47.2337 0.426277 48.257C0.00242637 49.2802 -0.108472 50.4062 0.107605 51.4925C0.323682 52.5788 0.85703 53.5766 1.6402 54.3598C2.42338 55.143 3.4212 55.6763 4.5075 55.8924C5.59379 56.1085 6.71976 55.9976 7.74303 55.5737C8.7663 55.1499 9.6409 54.4321 10.2562 53.5112C10.8716 52.5903 11.2 51.5076 11.2 50.4C11.2 48.9148 10.61 47.4904 9.5598 46.4402C8.5096 45.39 7.08522 44.8 5.6 44.8Z" fill="#2E00B3"/>
</svg>
