<svg width="50" height="50" viewBox="0 0 50 50" fill="none" xmlns="http://www.w3.org/2000/svg">
<path d="M37.5003 22.9167V27.0833H45.8337V22.9167H37.5003ZM33.3337 36.6875C35.3337 38.1667 37.9378 40.125 40.0003 41.6667C40.8337 40.5625 41.667 39.4375 42.5003 38.3333C40.4378 36.7917 37.8337 34.8333 35.8337 33.3333C35.0003 34.4583 34.167 35.5833 33.3337 36.6875ZM42.5003 11.6667C41.667 10.5625 40.8337 9.43749 40.0003 8.33333C37.9378 9.87499 35.3337 11.8333 33.3337 13.3333C34.167 14.4375 35.0003 15.5625 35.8337 16.6667C37.8337 15.1667 40.4378 13.2292 42.5003 11.6667ZM16.667 18.75H4.16699V31.25H10.417V39.5833H14.5837V31.25H16.667L27.0837 37.5V12.5L16.667 18.75ZM32.292 25C32.292 22.2292 31.0837 19.7292 29.167 18.0208V31.9583C31.0837 30.2708 32.292 27.7708 32.292 25Z" fill="black"/>
</svg>
