<svg width="50" height="50" viewBox="0 0 50 50" fill="none" xmlns="http://www.w3.org/2000/svg">
<path d="M25 31.25C26.6576 31.25 28.2473 30.5915 29.4194 29.4194C30.5915 28.2473 31.25 26.6576 31.25 25C31.25 23.3424 30.5915 21.7527 29.4194 20.5806C28.2473 19.4085 26.6576 18.75 25 18.75C23.3424 18.75 21.7527 19.4085 20.5806 20.5806C19.4085 21.7527 18.75 23.3424 18.75 25C18.75 26.6576 19.4085 28.2473 20.5806 29.4194C21.7527 30.5915 23.3424 31.25 25 31.25Z" fill="black"/>
<path fill-rule="evenodd" clip-rule="evenodd" d="M25 6.25C25.5525 6.25 26.0824 6.46949 26.4731 6.86019C26.8638 7.25089 27.0833 7.7808 27.0833 8.33333V10.5625C30.1999 11.013 33.0871 12.4596 35.3138 14.6862C37.5404 16.9129 38.987 19.8001 39.4375 22.9167H41.6667C42.2192 22.9167 42.7491 23.1362 43.1398 23.5269C43.5305 23.9176 43.75 24.4475 43.75 25C43.75 25.5525 43.5305 26.0824 43.1398 26.4731C42.7491 26.8638 42.2192 27.0833 41.6667 27.0833H39.4375C38.987 30.1999 37.5404 33.0871 35.3138 35.3138C33.0871 37.5404 30.1999 38.987 27.0833 39.4375V41.6667C27.0833 42.2192 26.8638 42.7491 26.4731 43.1398C26.0824 43.5305 25.5525 43.75 25 43.75C24.4475 43.75 23.9176 43.5305 23.5269 43.1398C23.1362 42.7491 22.9167 42.2192 22.9167 41.6667V39.4375C19.8001 38.987 16.9129 37.5404 14.6862 35.3138C12.4596 33.0871 11.013 30.1999 10.5625 27.0833H8.33333C7.7808 27.0833 7.25089 26.8638 6.86019 26.4731C6.46949 26.0824 6.25 25.5525 6.25 25C6.25 24.4475 6.46949 23.9176 6.86019 23.5269C7.25089 23.1362 7.7808 22.9167 8.33333 22.9167H10.5625C11.0133 19.8002 12.46 16.9132 14.6866 14.6866C16.9132 12.46 19.8002 11.0133 22.9167 10.5625V8.33333C22.9167 7.7808 23.1362 7.25089 23.5269 6.86019C23.9176 6.46949 24.4475 6.25 25 6.25V6.25ZM14.5833 25C14.5833 22.2373 15.6808 19.5878 17.6343 17.6343C19.5878 15.6808 22.2373 14.5833 25 14.5833C27.7627 14.5833 30.4122 15.6808 32.3657 17.6343C34.3192 19.5878 35.4167 22.2373 35.4167 25C35.4167 27.7627 34.3192 30.4122 32.3657 32.3657C30.4122 34.3192 27.7627 35.4167 25 35.4167C22.2373 35.4167 19.5878 34.3192 17.6343 32.3657C15.6808 30.4122 14.5833 27.7627 14.5833 25V25Z" fill="black"/>
</svg>
