<svg width="40" height="40" viewBox="0 0 40 40" fill="none" xmlns="http://www.w3.org/2000/svg">
<path d="M26.875 12.1875V10.3125C26.875 10.1406 26.7344 10 26.5625 10H11.5625C11.3906 10 11.25 10.1406 11.25 10.3125V12.1875C11.25 12.3594 11.3906 12.5 11.5625 12.5H26.5625C26.7344 12.5 26.875 12.3594 26.875 12.1875ZM11.5625 15.625C11.3906 15.625 11.25 15.7656 11.25 15.9375V17.8125C11.25 17.9844 11.3906 18.125 11.5625 18.125H18.75C18.9219 18.125 19.0625 17.9844 19.0625 17.8125V15.9375C19.0625 15.7656 18.9219 15.625 18.75 15.625H11.5625ZM17.1875 33.2812H8.125V5.78125H30V19.2188C30 19.3906 30.1406 19.5312 30.3125 19.5312H32.5C32.6719 19.5312 32.8125 19.3906 32.8125 19.2188V4.21875C32.8125 3.52734 32.2539 2.96875 31.5625 2.96875H6.5625C5.87109 2.96875 5.3125 3.52734 5.3125 4.21875V34.8438C5.3125 35.5352 5.87109 36.0938 6.5625 36.0938H17.1875C17.3594 36.0938 17.5 35.9531 17.5 35.7812V33.5938C17.5 33.4219 17.3594 33.2812 17.1875 33.2812ZM34.5977 35.293L30.9531 31.6484C31.8242 30.4961 32.3438 29.0586 32.3438 27.5C32.3438 23.7031 29.2656 20.625 25.4688 20.625C21.6719 20.625 18.5938 23.7031 18.5938 27.5C18.5938 31.2969 21.6719 34.375 25.4688 34.375C26.8672 34.375 28.1641 33.957 29.25 33.2422L32.9492 36.9414C33.0117 37.0039 33.0898 37.0312 33.168 37.0312C33.2461 37.0312 33.3281 37 33.3867 36.9414L34.5977 35.7305C34.6265 35.7018 34.6493 35.6677 34.665 35.6302C34.6806 35.5926 34.6886 35.5524 34.6886 35.5117C34.6886 35.4711 34.6806 35.4308 34.665 35.3933C34.6493 35.3557 34.6265 35.3216 34.5977 35.293V35.293ZM25.4688 31.875C23.0508 31.875 21.0938 29.918 21.0938 27.5C21.0938 25.082 23.0508 23.125 25.4688 23.125C27.8867 23.125 29.8438 25.082 29.8438 27.5C29.8438 29.918 27.8867 31.875 25.4688 31.875Z" fill="black"/>
</svg>
