<svg width="30" height="30" viewBox="0 0 30 30" fill="none" xmlns="http://www.w3.org/2000/svg">
<path d="M27.4995 13.925C27.3899 13.9256 27.2811 13.9046 27.1796 13.8631C27.0781 13.8217 26.9857 13.7606 26.9079 13.6833L16.4162 3.18333C16.2797 3.02392 16.2083 2.81885 16.2164 2.60912C16.2245 2.39939 16.3115 2.20044 16.4599 2.05203C16.6083 1.90362 16.8073 1.81668 17.017 1.80857C17.2267 1.80047 17.4318 1.87181 17.5912 2.00833L28.0912 12.5C28.2087 12.6166 28.2889 12.7655 28.3214 12.9278C28.354 13.0901 28.3375 13.2584 28.274 13.4112C28.2105 13.5641 28.103 13.6946 27.965 13.7861C27.8271 13.8776 27.6651 13.926 27.4995 13.925Z" fill="white"/>
<path d="M17.0335 6.32501L11.3751 11.9833C9.86887 11.6202 8.29489 11.6469 6.80182 12.061C5.30875 12.4751 3.94585 13.2629 2.84181 14.35C2.7637 14.4275 2.70171 14.5196 2.6594 14.6212C2.61709 14.7227 2.59531 14.8317 2.59531 14.9417C2.59531 15.0517 2.61709 15.1606 2.6594 15.2622C2.70171 15.3637 2.7637 15.4559 2.84181 15.5333L8.10847 20.8333L1.90847 27.0083C1.82124 27.0831 1.75039 27.175 1.70037 27.2784C1.65035 27.3818 1.62224 27.4944 1.61781 27.6091C1.61338 27.7239 1.63271 27.8383 1.67461 27.9453C1.7165 28.0522 1.78005 28.1493 1.86127 28.2306C1.94248 28.3118 2.0396 28.3753 2.14654 28.4172C2.25348 28.4591 2.36792 28.4784 2.48269 28.474C2.59745 28.4696 2.71006 28.4415 2.81345 28.3915C2.91684 28.3414 3.00877 28.2706 3.08347 28.1833L9.28348 21.9833L14.5585 27.2583C14.6363 27.3356 14.7287 27.3967 14.8302 27.4382C14.9318 27.4796 15.0405 27.5006 15.1501 27.5C15.2604 27.4996 15.3695 27.4772 15.471 27.4343C15.5726 27.3914 15.6646 27.3288 15.7418 27.25C16.825 26.1433 17.6101 24.7803 18.0239 23.2881C18.4378 21.7959 18.4669 20.2232 18.1085 18.7167L23.7668 13.0583L17.0335 6.32501Z" fill="white"/>
</svg>
