<svg width="133" height="133" viewBox="0 0 133 133" fill="none" xmlns="http://www.w3.org/2000/svg">
<circle cx="66.5" cy="66.5" r="66.5" fill="#4C75F2"/>
<path d="M66.5007 28.5833C87.4307 28.5833 104.417 45.57 104.417 66.5C104.417 87.43 87.4307 104.417 66.5007 104.417C45.5707 104.417 28.584 87.43 28.584 66.5C28.584 45.57 45.5707 28.5833 66.5007 28.5833ZM66.5007 47.5417C56.0357 47.5417 47.5423 56.035 47.5423 66.5C47.5479 70.6436 48.9104 74.6712 51.4213 77.9673C53.9322 81.2634 57.4535 83.6465 61.4467 84.7523C65.44 85.8581 69.6855 85.6258 73.5342 84.0908C77.383 82.5558 80.6231 79.8026 82.7593 76.2522L76.2566 72.3544C75.2333 74.0592 73.7809 75.466 72.0443 76.4345C70.3077 77.403 68.3476 77.8993 66.3594 77.8741C64.3712 77.8489 62.4243 77.3029 60.7128 76.2906C59.0014 75.2783 57.5852 73.8351 56.6055 72.1049C55.6257 70.3746 55.1167 68.4177 55.129 66.4294C55.1414 64.441 55.6747 62.4907 56.6759 60.7727C57.677 59.0547 59.111 57.6292 60.8349 56.6383C62.5588 55.6473 64.5123 55.1256 66.5007 55.125C70.645 55.125 74.2736 57.3393 76.2604 60.6495L82.7593 56.7441C81.0748 53.9366 78.6918 51.6133 75.8425 50.0006C72.9932 48.3879 69.7747 47.5408 66.5007 47.5417Z" fill="white"/>
</svg>
