<svg width="69" height="63" viewBox="0 0 69 63" fill="none" xmlns="http://www.w3.org/2000/svg">
<path d="M34.3442 48.7056C31.8807 48.7076 29.4551 48.1529 27.2843 47.0911C25.1134 46.0292 23.265 44.4934 21.9043 42.6209L25.4573 40.4683C26.43 41.8056 27.7505 42.9027 29.3011 43.6616C30.8518 44.4205 32.5843 44.8177 34.3442 44.8177C36.1041 44.8177 37.8366 44.4205 39.3872 43.6616C40.9379 42.9027 42.2584 41.8056 43.231 40.4683L46.7841 42.6209C45.4233 44.4934 43.5749 46.0292 41.4041 47.0911C39.2332 48.1529 36.8076 48.7076 34.3442 48.7056Z" fill="black"/>
<path d="M42.8747 27.3149C42.0311 27.3149 41.2065 27.543 40.505 27.9703C39.8036 28.3977 39.2569 29.0051 38.9341 29.7158C38.6112 30.4264 38.5268 31.2084 38.6913 31.9629C38.8559 32.7173 39.2621 33.4103 39.8587 33.9542C40.4552 34.4981 41.2152 34.8686 42.0426 35.0186C42.87 35.1687 43.7276 35.0917 44.507 34.7973C45.2864 34.5029 45.9525 34.0044 46.4212 33.3649C46.8899 32.7253 47.1401 31.9733 47.1401 31.2041C47.1458 30.6919 47.0393 30.1839 46.827 29.7096C46.6147 29.2354 46.3007 28.8046 45.9035 28.4424C45.5063 28.0802 45.0338 27.794 44.5137 27.6004C43.9937 27.4067 43.4364 27.3097 42.8747 27.3149Z" fill="black"/>
<path d="M25.8122 27.3149C24.9686 27.3149 24.144 27.543 23.4425 27.9703C22.7411 28.3977 22.1944 29.0051 21.8716 29.7158C21.5487 30.4264 21.4643 31.2084 21.6288 31.9629C21.7934 32.7173 22.1996 33.4103 22.7962 33.9542C23.3927 34.4981 24.1527 34.8686 24.9801 35.0186C25.8075 35.1687 26.6651 35.0917 27.4445 34.7973C28.2239 34.5029 28.89 34.0044 29.3587 33.3649C29.8274 32.7253 30.0776 31.9733 30.0776 31.2041C30.0833 30.6919 29.9768 30.1839 29.7645 29.7096C29.5522 29.2354 29.2382 28.8046 28.841 28.4424C28.4438 28.0802 27.9713 27.794 27.4512 27.6004C26.9312 27.4067 26.3739 27.3097 25.8122 27.3149Z" fill="black"/>
<path d="M64.2012 31.2041V27.3149H59.9358V19.5364C59.933 17.4743 59.0333 15.4973 57.4341 14.0391C55.8349 12.5809 53.6668 11.7606 51.4051 11.758H47.1398V3.97953H42.8745V11.758H25.8131V3.97953H21.5477V11.758H17.2824C15.0208 11.7606 12.8526 12.5809 11.2534 14.0391C9.65417 15.4973 8.7545 17.4743 8.75168 19.5364V27.3149H4.48633V31.2041H8.75168V40.9272H4.48633V44.8164H8.75168V50.6502C8.7545 52.7124 9.65417 54.6894 11.2534 56.1476C12.8526 57.6058 15.0208 58.4261 17.2824 58.4287H51.4051C53.6668 58.4261 55.8349 57.6058 57.4341 56.1476C59.0333 54.6894 59.933 52.7124 59.9358 50.6502V44.8164H64.2012V40.9272H59.9358V31.2041H64.2012ZM55.6705 50.6502C55.6694 51.6814 55.2196 52.6701 54.42 53.3992C53.6203 54.1284 52.536 54.5384 51.4051 54.5395H17.2824C16.1515 54.5384 15.0672 54.1284 14.2676 53.3992C13.4679 52.6701 13.0182 51.6814 13.017 50.6502V19.5364C13.0182 18.5053 13.4679 17.5166 14.2676 16.7875C15.0672 16.0583 16.1515 15.6482 17.2824 15.6472H51.4051C52.536 15.6482 53.6203 16.0583 54.42 16.7875C55.2196 17.5166 55.6694 18.5053 55.6705 19.5364V50.6502Z" fill="black"/>
</svg>
