<svg width="69" height="63" viewBox="0 0 69 63" fill="none" xmlns="http://www.w3.org/2000/svg">
<path d="M44.8398 39.3494V58.7955L64.0339 49.0725L44.8398 39.3494Z" fill="black"/>
<path d="M29.9099 31.571C32.2656 31.571 34.1752 29.8297 34.1752 27.6817C34.1752 25.5338 32.2656 23.7925 29.9099 23.7925C27.5542 23.7925 25.6445 25.5338 25.6445 27.6817C25.6445 29.8297 27.5542 31.571 29.9099 31.571Z" fill="black"/>
<path d="M29.9093 39.3494C27.3785 39.3494 24.9045 38.6651 22.8002 37.383C20.6959 36.101 19.0558 34.2787 18.0873 32.1468C17.1188 30.0148 16.8654 27.6688 17.3592 25.4055C17.8529 23.1422 19.0716 21.0632 20.8612 19.4314C22.6507 17.7997 24.9308 16.6884 27.4129 16.2382C29.8951 15.788 32.468 16.0191 34.8062 16.9022C37.1443 17.7853 39.1428 19.2808 40.5488 21.1995C41.9549 23.1183 42.7054 25.3741 42.7054 27.6817C42.7014 30.7751 41.352 33.7407 38.9531 35.928C36.5543 38.1154 33.3018 39.3458 29.9093 39.3494ZM29.9093 19.9033C28.2221 19.9033 26.5728 20.3595 25.1699 21.2142C23.7671 22.0689 22.6737 23.2837 22.028 24.705C21.3823 26.1264 21.2134 27.6904 21.5425 29.1992C21.8717 30.7081 22.6842 32.0941 23.8772 33.1819C25.0703 34.2698 26.5903 35.0106 28.2451 35.3107C29.8999 35.6109 31.6151 35.4568 33.1739 34.8681C34.7327 34.2794 36.065 33.2824 37.0023 32.0032C37.9397 30.724 38.44 29.2202 38.44 27.6817C38.4372 25.6195 37.5375 23.6426 35.9383 22.1844C34.3391 20.7262 32.1709 19.9059 29.9093 19.9033Z" fill="black"/>
<path d="M55.3983 25.5621H55.3855C54.9307 20.7754 52.8732 16.2319 49.4917 12.547C46.1103 8.86224 41.5683 6.21429 36.4811 4.96195C31.394 3.70961 26.0076 3.91342 21.0518 5.54576C16.0959 7.17809 11.8101 10.1601 8.77507 14.0877C5.74003 18.0152 4.10243 22.6986 4.08414 27.5032C4.06585 32.3078 5.66776 37.0014 8.67283 40.9481C11.6779 44.8948 15.9409 47.9038 20.8842 49.5675C25.8275 51.2312 31.2122 51.4691 36.3087 50.249V46.2314C31.7888 47.5214 26.9261 47.4002 22.4903 45.8867C18.0544 44.3733 14.2989 41.5541 11.8179 37.8755C9.33697 34.1968 8.27238 29.8688 8.79265 25.5764C9.31291 21.284 11.3883 17.2723 14.6904 14.1765C17.9924 11.0806 22.3325 9.07724 27.0237 8.48355C31.715 7.88986 36.4894 8.73972 40.5913 10.8986C44.6932 13.0575 47.8883 16.4021 49.6709 20.4031C51.4536 24.4041 51.7219 28.8329 50.4334 32.9886L54.5388 34.0465C55.1796 31.9754 55.5039 29.8336 55.5028 27.6817C55.5028 26.9687 55.468 26.2622 55.3983 25.5621Z" fill="black"/>
</svg>
