<svg width="70" height="63" viewBox="0 0 70 63" fill="none" xmlns="http://www.w3.org/2000/svg">
<path d="M31.9496 4.53513C31.4648 4.53513 30.9999 4.71074 30.6571 5.02333C30.3142 5.33592 30.1216 5.75988 30.1216 6.20195C30.1216 6.64401 30.3142 7.06797 30.6571 7.38056C30.9999 7.69315 31.4648 7.86876 31.9496 7.86876H45.9644V14.1026C45.9644 17.9919 41.699 21.2033 36.8243 21.2033C36.3395 21.2033 35.8746 21.3789 35.5317 21.6915C35.1889 22.004 34.9963 22.428 34.9963 22.8701C34.9963 23.3121 35.1889 23.7361 35.5317 24.0487C35.8746 24.3613 36.3395 24.5369 36.8243 24.5369C43.0737 24.5369 49.6204 20.3721 49.6204 14.1026V6.20195C49.6204 5.75988 49.4278 5.33592 49.085 5.02333C48.7421 4.71074 48.2772 4.53513 47.7924 4.53513H31.9496ZM26.936 16.6762C26.7978 16.3715 26.5635 16.1111 26.2628 15.9278C25.9621 15.7446 25.6086 15.6468 25.247 15.6468C24.8853 15.6468 24.5318 15.7446 24.2311 15.9278C23.9305 16.1111 23.6962 16.3715 23.5579 16.6762L5.88717 55.5685C5.70164 55.9769 5.70167 56.4359 5.88725 56.8443C6.07283 57.2528 6.42876 57.5773 6.87673 57.7464C7.3247 57.9156 7.82802 57.9156 8.27597 57.7464C8.72392 57.5771 9.0798 57.2526 9.26532 56.8441L14.3521 45.6454H36.1468L41.2384 56.8464C41.3304 57.0486 41.4652 57.2324 41.6351 57.3871C41.805 57.5418 42.0067 57.6646 42.2286 57.7483C42.4505 57.8319 42.6883 57.8749 42.9284 57.8748C43.1686 57.8747 43.4064 57.8315 43.6282 57.7475C43.85 57.6636 44.0515 57.5407 44.2212 57.3858C44.3909 57.2309 44.5255 57.047 44.6173 56.8446C44.7091 56.6423 44.7562 56.4255 44.7561 56.2065C44.756 55.9875 44.7085 55.7707 44.6165 55.5685L39.2446 43.7541C39.2027 43.4689 39.08 43.1985 38.8888 42.9696L26.936 16.6762ZM34.6332 42.3118H15.8656L25.2494 21.6677L34.6332 42.3118ZM55.1044 4.53513C55.5892 4.53513 56.0542 4.71074 56.397 5.02333C56.7398 5.33592 56.9324 5.75988 56.9324 6.20195V18.9808H62.414C62.8988 18.9808 63.3637 19.1564 63.7066 19.469C64.0494 19.7816 64.242 20.2056 64.242 20.6476C64.242 21.0897 64.0494 21.5137 63.7066 21.8263C63.3637 22.1388 62.8988 22.3145 62.414 22.3145H56.9348V42.8718C56.9348 43.3139 56.7422 43.7378 56.3994 44.0504C56.0566 44.363 55.5916 44.5386 55.1068 44.5386C54.622 44.5386 54.157 44.363 53.8142 44.0504C53.4714 43.7378 53.2788 43.3139 53.2788 42.8718V20.7588C53.2737 20.6848 53.2737 20.6105 53.2788 20.5365V6.20195C53.2788 5.75988 53.4714 5.33592 53.8142 5.02333C54.157 4.71074 54.622 4.53513 55.1068 4.53513H55.1044Z" fill="black"/>
</svg>
