<svg width="40" height="40" viewBox="0 0 40 40" fill="none" xmlns="http://www.w3.org/2000/svg">
<path d="M19.9995 13.4912C16.4155 13.4912 13.4907 16.416 13.4907 20C13.4907 23.584 16.4155 26.5088 19.9995 26.5088C23.5835 26.5088 26.5083 23.584 26.5083 20C26.5083 16.416 23.5835 13.4912 19.9995 13.4912ZM39.521 20C39.521 17.3047 39.5454 14.6338 39.394 11.9433C39.2427 8.81834 38.5298 6.04491 36.2446 3.75975C33.9546 1.46971 31.186 0.761706 28.061 0.610339C25.3657 0.458972 22.6948 0.483386 20.0044 0.483386C17.3091 0.483386 14.6382 0.458972 11.9477 0.610339C8.82274 0.761706 6.0493 1.4746 3.76415 3.75975C1.47411 6.04979 0.766101 8.81834 0.614734 11.9433C0.463366 14.6387 0.48778 17.3096 0.48778 20C0.48778 22.6904 0.463366 25.3662 0.614734 28.0566C0.766101 31.1816 1.47899 33.9551 3.76415 36.2402C6.05419 38.5302 8.82274 39.2383 11.9477 39.3896C14.6431 39.541 17.314 39.5166 20.0044 39.5166C22.6997 39.5166 25.3706 39.541 28.061 39.3896C31.186 39.2383 33.9595 38.5254 36.2446 36.2402C38.5347 33.9502 39.2427 31.1816 39.394 28.0566C39.5503 25.3662 39.521 22.6953 39.521 20ZM19.9995 30.0146C14.4575 30.0146 9.98485 25.542 9.98485 20C9.98485 14.458 14.4575 9.98534 19.9995 9.98534C25.5415 9.98534 30.0141 14.458 30.0141 20C30.0141 25.542 25.5415 30.0146 19.9995 30.0146ZM30.4243 11.914C29.1304 11.914 28.0854 10.8691 28.0854 9.57518C28.0854 8.28123 29.1304 7.23631 30.4243 7.23631C31.7183 7.23631 32.7632 8.28123 32.7632 9.57518C32.7636 9.88243 32.7033 10.1867 32.5859 10.4707C32.4685 10.7546 32.2963 11.0126 32.079 11.2299C31.8617 11.4471 31.6037 11.6194 31.3198 11.7368C31.0359 11.8542 30.7316 11.9144 30.4243 11.914Z" fill="#002947" fill-opacity="0.62"/>
</svg>
