<svg width="44" height="44" viewBox="0 0 44 44" fill="none" xmlns="http://www.w3.org/2000/svg">
<path d="M9.91875 43.75H0.848437V14.5406H9.91875V43.75ZM5.37812 10.5562C2.47812 10.5562 0.125 8.15312 0.125 5.25313C0.125 3.85991 0.678453 2.52376 1.6636 1.5386C2.64876 0.553453 3.98491 0 5.37812 0C6.77134 0 8.10749 0.553453 9.09264 1.5386C10.0778 2.52376 10.6312 3.85991 10.6312 5.25313C10.6312 8.15312 8.27812 10.5562 5.37812 10.5562ZM43.8656 43.75H34.8156V29.5312C34.8156 26.1422 34.7469 21.7969 30.1 21.7969C25.3844 21.7969 24.6609 25.4781 24.6609 29.2875V43.75H15.6V14.5406H24.2984V18.525H24.425C25.6359 16.2297 28.5937 13.8078 33.0062 13.8078C42.1859 13.8078 43.8734 19.8531 43.8734 27.7047V43.75H43.8656Z" fill="#002947" fill-opacity="0.62"/>
</svg>
