<svg width="65" height="79" viewBox="0 0 65 79" fill="none" xmlns="http://www.w3.org/2000/svg">
<g filter="url(#filter0_d_19_626)">
<path d="M30.3483 41.3779L40.0336 39.6668C45.0442 38.7816 47.5495 38.3391 48.0357 36.9203C48.1293 36.6472 48.1778 36.3602 48.1791 36.072C48.1857 34.5747 45.9611 33.3567 41.5119 30.9209C40.5335 30.3853 40.0443 30.1174 39.7305 29.6765C39.6646 29.584 39.6051 29.4867 39.5524 29.3851C39.3011 28.9008 39.2694 28.3161 39.206 27.1465C38.9177 21.8276 38.7736 19.1682 37.4854 18.568C37.2375 18.4525 36.9715 18.3834 36.6991 18.3639C35.2842 18.2624 33.8891 20.5222 31.0989 25.0419L31.0989 25.0419L25.7056 33.7783C23.1959 37.8435 21.9411 39.8762 22.7646 41.2242C23.5881 42.5721 25.8415 42.174 30.3483 41.3779Z" fill="url(#paint0_linear_19_626)"/>
</g>
<defs>
<filter id="filter0_d_19_626" x="6.71539" y="18.3606" width="57.2614" height="60.608" filterUnits="userSpaceOnUse" color-interpolation-filters="sRGB">
<feFlood flood-opacity="0" result="BackgroundImageFix"/>
<feColorMatrix in="SourceAlpha" type="matrix" values="0 0 0 0 0 0 0 0 0 0 0 0 0 0 0 0 0 0 127 0" result="hardAlpha"/>
<feOffset dy="21.0634"/>
<feGaussianBlur stdDeviation="7.89877"/>
<feComposite in2="hardAlpha" operator="out"/>
<feColorMatrix type="matrix" values="0 0 0 0 1 0 0 0 0 0.721569 0 0 0 0 0.729412 0 0 0 1 0"/>
<feBlend mode="normal" in2="BackgroundImageFix" result="effect1_dropShadow_19_626"/>
<feBlend mode="normal" in="SourceGraphic" in2="effect1_dropShadow_19_626" result="shape"/>
</filter>
<linearGradient id="paint0_linear_19_626" x1="53.5899" y1="17.5751" x2="8.78789" y2="61.2533" gradientUnits="userSpaceOnUse">
<stop stop-color="#ED1F24"/>
<stop offset="1" stop-color="#FFB8BA"/>
</linearGradient>
</defs>
</svg>
