<svg width="48" height="44" viewBox="0 0 48 44" fill="none" xmlns="http://www.w3.org/2000/svg">
<path d="M42.3493 14.5948C42.6777 13.5457 42.7489 12.4438 42.5578 11.3668C42.3668 10.2899 41.9181 9.2644 41.2437 8.36278C40.5692 7.46115 39.6854 6.70546 38.6548 6.14916C37.6241 5.59286 36.4718 5.24953 35.2793 5.14346C34.8008 3.89352 33.9074 2.8099 32.7226 2.04261C31.5379 1.27532 30.1205 0.862298 28.6666 0.860718C26.939 0.866045 25.2754 1.45674 24 2.51773C22.7245 1.45674 21.0609 0.866045 19.3333 0.860718C16.2976 0.860718 13.71 2.62608 12.7416 5.14134C11.547 5.24475 10.3921 5.58623 9.35868 6.14156C8.32529 6.69688 7.43878 7.45245 6.76204 8.35465C6.0853 9.25686 5.63492 10.2836 5.44284 11.362C5.25077 12.4405 5.32171 13.5442 5.65063 14.5948C4.15271 15.3204 2.89846 16.4016 2.02097 17.7238C1.14348 19.046 0.675483 20.5597 0.666626 22.1045C0.666626 24.3882 1.66529 26.536 3.40129 28.1207C3.13567 28.9257 3.00047 29.7616 2.99996 30.602C2.99996 34.7594 6.29463 38.2285 10.714 38.9593C11.3627 40.2648 12.4104 41.3728 13.7318 42.151C15.0533 42.9292 16.5928 43.3448 18.1666 43.3483C20.451 43.3483 22.516 42.4837 24 41.0986C24.7574 41.8099 25.664 42.3756 26.666 42.7621C27.6681 43.1485 28.7451 43.3479 29.8333 43.3483C31.4043 43.3456 32.9413 42.9317 34.2611 42.1557C35.5809 41.3798 36.6277 40.2747 37.2766 38.9721C38.5785 38.7631 39.8169 38.3051 40.9101 37.6283C42.0032 36.9515 42.9263 36.0712 43.6183 35.0457C44.3102 34.0202 44.7554 32.8727 44.9244 31.679C45.0934 30.4853 44.9824 29.2725 44.5986 28.1207C45.4662 27.3306 46.1542 26.3926 46.6235 25.3603C47.0927 24.3281 47.3339 23.2217 47.3333 22.1045C47.3245 20.5597 46.8565 19.046 45.979 17.7238C45.1015 16.4016 43.8472 15.3204 42.3493 14.5948ZM18.1666 39.0995C16.5076 39.0995 15.0633 38.0288 14.7366 36.5545L14.242 34.8508H12.3333C9.75963 34.8508 7.66663 32.9452 7.66663 30.602C7.66663 29.8542 7.86496 29.1532 8.25696 28.518L9.32096 26.7845L7.49163 25.7011C6.83079 25.3132 6.2871 24.7809 5.91011 24.1527C5.53312 23.5245 5.33482 22.8204 5.33329 22.1045C5.33329 20.029 7.0203 18.2296 9.25796 17.9152L13.2083 17.3629L10.7373 14.5035C10.2973 13.987 10.0421 13.3599 10.0062 12.707C9.97039 12.0542 10.1556 11.4071 10.5369 10.8532C10.9182 10.2993 11.4772 9.86546 12.1382 9.61024C12.7991 9.35502 13.5302 9.29078 14.2326 9.42621L17 9.79798V7.23385C17 6.67043 17.2458 6.13009 17.6834 5.73169C18.121 5.33329 18.7145 5.10948 19.3333 5.10948C19.9521 5.10948 20.5456 5.33329 20.9832 5.73169C21.4208 6.13009 21.6666 6.67043 21.6666 7.23385V35.913C21.6666 37.6698 20.0963 39.0995 18.1666 39.0995ZM40.5083 25.699L38.679 26.7824L39.743 28.5159C40.135 29.1532 40.3333 29.8542 40.3333 30.602C40.3333 32.9452 38.2403 34.8508 35.55 34.8508H33.6413L33.2633 36.5545C33.1002 37.2731 32.67 37.9186 32.0452 38.3822C31.4205 38.8457 30.6393 39.0991 29.8333 39.0995C27.9036 39.0995 26.3333 37.6698 26.3333 35.913V7.23385C26.3333 6.0612 27.3786 5.10948 28.6666 5.10948C29.9546 5.10948 31 6.0612 31 7.34007V9.9042L33.7673 9.42621C34.4697 9.29078 35.2008 9.35502 35.8618 9.61024C36.5228 9.86546 37.0817 10.2993 37.463 10.8532C37.8443 11.4071 38.0296 12.0542 37.9937 12.707C37.9579 13.3599 37.7027 13.987 37.2626 14.5035L34.7916 17.365L38.742 17.9174C39.8351 18.0785 40.8298 18.588 41.5487 19.3549C42.2675 20.1218 42.6637 21.0963 42.6666 22.1045C42.6666 23.5555 41.8593 24.8981 40.5083 25.699Z" fill="#FFB8BA"/>
</svg>
