<svg width="238" height="63" viewBox="0 0 238 63" fill="none" xmlns="http://www.w3.org/2000/svg">
<path d="M74.3168 9.77244C73.4438 5.92544 70.8723 2.89646 67.6063 1.86819C61.6866 -6.91878e-06 37.9512 0 37.9512 0C37.9512 0 14.2158 -6.91878e-06 8.29606 1.86819C5.03053 2.89646 2.45856 5.92544 1.58558 9.77244C0 16.7448 0 31.2923 0 31.2923C0 31.2923 0 45.8393 1.58558 52.8111C2.45856 56.6581 5.03053 59.6876 8.29606 60.7159C14.2158 62.5835 37.9512 62.5835 37.9512 62.5835C37.9512 62.5835 61.6866 62.5835 67.6063 60.7159C70.8723 59.6876 73.4438 56.6581 74.3168 52.8111C75.9033 45.8393 75.9033 31.2923 75.9033 31.2923C75.9033 31.2923 75.9033 16.7448 74.3168 9.77244Z" fill="#ED1F24"/>
<path d="M30.3608 44.6934L50.0804 31.2825L30.3608 17.8711V44.6934Z" fill="white"/>
<path d="M118.586 50.8035C119.002 49.5261 119.211 47.4372 119.211 44.5386V32.3262C119.211 29.5135 119.002 27.4569 118.586 26.1565C118.17 24.8572 117.437 24.2067 116.389 24.2067C115.375 24.2067 114.66 24.8572 114.244 26.1565C113.828 27.4569 113.62 29.5135 113.62 32.3262V44.5386C113.62 47.4372 113.819 49.5261 114.217 50.8035C114.615 52.0826 115.338 52.7216 116.389 52.7216C117.437 52.7216 118.17 52.0826 118.586 50.8035ZM110.174 56.942C108.671 55.75 107.603 53.895 106.971 51.379C106.337 48.8652 106.021 45.5187 106.021 41.3415V35.6514C106.021 31.4315 106.382 28.0422 107.107 25.4858C107.83 22.9282 108.96 21.0633 110.499 19.891C112.037 18.7192 114.054 18.1328 116.551 18.1328C119.012 18.1328 120.984 18.7296 122.468 19.9233C123.951 21.1164 125.037 22.9818 125.725 25.517C126.412 28.0543 126.756 31.4315 126.756 35.6514V41.3415C126.756 45.5187 126.421 48.8762 125.751 51.4119C125.082 53.9486 123.996 55.802 122.495 56.9738C120.992 58.1461 118.958 58.7319 116.389 58.7319C113.746 58.7319 111.674 58.1351 110.174 56.942Z" fill="#272727"/>
<path d="M226.411 24.9225C226.031 25.4771 225.777 26.3828 225.651 27.6394C225.524 28.8971 225.462 30.8047 225.462 33.3623V36.176H230.943V33.3623C230.943 30.8474 230.87 28.9398 230.726 27.6394C230.581 26.34 230.319 25.4246 229.94 24.8907C229.559 24.358 228.971 24.0913 228.175 24.0913C227.378 24.0913 226.791 24.3689 226.411 24.9225ZM225.462 41.4187V43.4008C225.462 45.9162 225.524 47.8014 225.651 49.0586C225.777 50.3163 226.039 51.2334 226.438 51.8089C226.836 52.3838 227.45 52.6723 228.284 52.6723C229.405 52.6723 230.174 52.1598 230.59 51.137C231.006 50.1142 231.232 48.4097 231.269 46.0219L237.728 46.4698C237.764 46.812 237.782 47.2796 237.782 47.8759C237.782 51.4995 236.942 54.2065 235.258 55.9964C233.577 57.7864 231.196 58.6821 228.121 58.6821C224.43 58.6821 221.842 57.3182 220.359 54.5893C218.874 51.8625 218.133 47.6426 218.133 41.9301V35.0881C218.133 29.2064 218.902 24.9126 220.44 22.2056C221.978 19.4985 224.611 18.145 228.338 18.145C230.906 18.145 232.879 18.6991 234.254 19.8073C235.629 20.9167 236.597 22.6425 237.158 24.9865C237.719 27.3311 238 30.5709 238 34.7048V41.4187H225.462Z" fill="#272727"/>
<path d="M91.9336 40.6979L83.4116 4.4458H90.8477L93.833 20.8769C94.5935 24.9276 95.1541 28.3799 95.5157 31.2347H95.7333C95.9861 29.1891 96.5472 25.7588 97.4155 20.941L100.51 4.4458H107.946L99.3158 40.6979V58.0894H91.9336V40.6979Z" fill="#272727"/>
<path d="M150.942 18.8916V58.0841H145.08L144.428 53.2899H144.265C142.673 56.9129 140.284 58.7236 137.1 58.7236C134.893 58.7236 133.265 57.8717 132.215 56.1667C131.165 54.4622 130.641 51.7973 130.641 48.1748V18.8916H138.132V47.6629C138.132 49.4112 138.295 50.6579 138.62 51.4025C138.946 52.1494 139.489 52.5223 140.249 52.5223C140.9 52.5223 141.525 52.2879 142.121 51.8187C142.718 51.3494 143.161 50.7537 143.451 50.0288V18.8916H150.942Z" fill="#272727"/>
<path d="M189.365 18.8916V58.0841H183.502L182.851 53.2899H182.689C181.095 56.9129 178.707 58.7236 175.523 58.7236C173.315 58.7236 171.688 57.8717 170.638 56.1667C169.588 54.4622 169.064 51.7973 169.064 48.1748V18.8916H176.554V47.6629C176.554 49.4112 176.717 50.6579 177.043 51.4025C177.369 52.1494 177.912 52.5223 178.671 52.5223C179.323 52.5223 179.947 52.2879 180.544 51.8187C181.141 51.3494 181.584 50.7537 181.874 50.0288V18.8916H189.365Z" fill="#272727"/>
<path d="M171.297 11.5434H163.86V58.0889H156.533V11.5434H149.096V4.44629H171.297V11.5434Z" fill="#272727"/>
<path d="M207.29 41.1467C207.29 44.0032 207.189 46.241 206.991 47.8601C206.792 49.4808 206.457 50.6318 205.987 51.3129C205.516 51.9951 204.882 52.3357 204.088 52.3357C203.471 52.3357 202.901 52.1654 202.377 51.8243C201.852 51.4832 201.428 50.9718 201.101 50.2895V28.0397C201.355 26.9747 201.789 26.1003 202.404 25.4181C203.02 24.7375 203.688 24.3953 204.412 24.3953C205.172 24.3953 205.76 24.7473 206.177 25.4498C206.592 26.1534 206.882 27.3361 207.045 28.9995C207.208 30.6613 207.29 33.0267 207.29 36.0956V41.1467ZM214.156 25.1602C213.703 22.6886 212.97 20.8981 211.957 19.7888C210.944 18.6811 209.55 18.127 207.778 18.127C206.403 18.127 205.118 18.5858 203.924 19.5019C202.73 20.4185 201.807 21.6225 201.156 23.114H201.101L201.101 2.4624H193.882V58.0871H200.07L200.83 54.3791H200.993C201.571 55.7003 202.44 56.7445 203.598 57.5122C204.756 58.2793 206.041 58.6631 207.453 58.6631C209.985 58.6631 211.849 57.2877 213.043 54.539C214.237 51.7898 214.834 47.496 214.834 41.6554V35.4545C214.834 31.0643 214.608 27.6329 214.156 25.1602Z" fill="#272727"/>
</svg>
