<svg width="193" height="9" viewBox="0 0 193 9" fill="none" xmlns="http://www.w3.org/2000/svg">
<path fill-rule="evenodd" clip-rule="evenodd" d="M1.65329 5.06272C3.19702 2.79497 4.52445 2 5.59176 2C6.65908 2 7.98651 2.79497 9.53024 5.06272C11.1633 7.46164 13.0126 9 15.122 9C17.2314 9 19.0807 7.46164 20.7138 5.06272C22.2575 2.79497 23.5849 2 24.6522 2C25.7196 2 27.047 2.79497 28.5907 5.06272C30.2237 7.46164 32.073 9 34.1825 9C36.2919 9 38.1412 7.46164 39.7742 5.06272C41.318 2.79497 42.6454 2 43.7127 2C44.78 2 46.1075 2.79497 47.6512 5.06272C49.2842 7.46164 51.1335 9 53.2429 9C55.3524 9 57.2017 7.46164 58.8347 5.06272C60.3784 2.79497 61.7059 2 62.7732 2C63.8405 2 65.1679 2.79497 66.7117 5.06272C68.3447 7.46164 70.194 9 72.3034 9C74.4128 9 76.2622 7.46164 77.8952 5.06272C79.4389 2.79497 80.7663 2 81.8336 2C82.901 2 84.2284 2.79497 85.7721 5.06272C87.4051 7.46164 89.2545 9 91.3639 9C93.4733 9 95.3226 7.46164 96.9557 5.06272C98.4994 2.79497 99.8268 2 100.894 2C101.961 2 103.289 2.79497 104.833 5.06272C106.466 7.46164 108.315 9 110.424 9C112.534 9 114.383 7.46164 116.016 5.06272C117.56 2.79497 118.887 2 119.955 2C121.022 2 122.349 2.79497 123.893 5.06272C125.526 7.46164 127.375 9 129.485 9C131.594 9 133.444 7.46164 135.077 5.06272C136.62 2.79497 137.948 2 139.015 2C140.082 2 141.41 2.79497 142.954 5.06272C144.587 7.46164 146.436 9 148.545 9C150.655 9 152.504 7.46164 154.137 5.06272C155.681 2.79497 157.008 2 158.076 2C159.143 2 160.47 2.79497 162.014 5.06272C163.647 7.46164 165.496 9 167.606 9C169.715 9 171.565 7.46164 173.198 5.06272C174.741 2.79497 176.069 2 177.136 2C178.203 2 179.531 2.79497 181.074 5.06272C182.708 7.46164 184.557 9 186.666 9C188.776 9 190.625 7.46164 192.258 5.06272L190.605 3.93728C189.061 6.20503 187.734 7 186.666 7C185.599 7 184.271 6.20503 182.728 3.93728C181.095 1.53836 179.245 0 177.136 0C175.027 0 173.177 1.53836 171.544 3.93728C170.001 6.20503 168.673 7 167.606 7C166.538 7 165.211 6.20503 163.667 3.93728C162.034 1.53836 160.185 0 158.076 0C155.966 0 154.117 1.53836 152.484 3.93728C150.94 6.20503 149.613 7 148.545 7C147.478 7 146.151 6.20503 144.607 3.93728C142.974 1.53836 141.124 0 139.015 0C136.906 0 135.056 1.53836 133.423 3.93728C131.88 6.20503 130.552 7 129.485 7C128.418 7 127.09 6.20503 125.546 3.93728C123.913 1.53836 122.064 0 119.955 0C117.845 0 115.996 1.53836 114.363 3.93728C112.819 6.20503 111.492 7 110.424 7C109.357 7 108.03 6.20503 106.486 3.93728C104.853 1.53836 103.004 0 100.894 0C98.7847 0 96.9354 1.53836 95.3024 3.93728C93.7586 6.20503 92.4312 7 91.3639 7C90.2966 7 88.9691 6.20503 87.4254 3.93728C85.7924 1.53836 83.9431 0 81.8336 0C79.7242 0 77.8749 1.53836 76.2419 3.93728C74.6982 6.20503 73.3707 7 72.3034 7C71.2361 7 69.9087 6.20503 68.3649 3.93728C66.7319 1.53836 64.8826 0 62.7732 0C60.6637 0 58.8144 1.53836 57.1814 3.93728C55.6377 6.20503 54.3103 7 53.2429 7C52.1756 7 50.8482 6.20503 49.3045 3.93728C47.6715 1.53836 45.8221 0 43.7127 0C41.6033 0 39.754 1.53836 38.1209 3.93728C36.5772 6.20503 35.2498 7 34.1825 7C33.1152 7 31.7877 6.20503 30.244 3.93728C28.611 1.53836 26.7617 0 24.6522 0C22.5428 0 20.6935 1.53836 19.0605 3.93728C17.5167 6.20503 16.1893 7 15.122 7C14.0547 7 12.7273 6.20503 11.1835 3.93728C9.55051 1.53836 7.70119 0 5.59176 0C3.48234 0 1.63302 1.53836 0 3.93728L1.65329 5.06272Z" fill="#FF494E"/>
</svg>
