<svg width="218" height="66" viewBox="0 0 218 66" fill="none" xmlns="http://www.w3.org/2000/svg">
<rect x="2.46453" y="0.728185" width="214.726" height="56.2192" rx="6.63699" transform="rotate(2.1 2.46453 0.728185)" stroke="#4C75F2" stroke-width="0.780822"/>
<rect x="0.405537" y="8.59168" width="214.726" height="56.2192" rx="6.63699" transform="rotate(-2.09744 0.405537 8.59168)" stroke="#ED1F24" stroke-width="0.780822"/>
<path d="M49.2424 38.3368C48.9196 38.3368 48.6698 38.2484 48.4928 38.0714C48.3262 37.884 48.2429 37.6289 48.2429 37.3062V28.2174C48.2429 27.8842 48.3314 27.6344 48.5084 27.4678C48.6854 27.2908 48.9353 27.2023 49.258 27.2023H53.0216C54.2292 27.2023 55.161 27.4938 55.8169 28.0768C56.4728 28.6494 56.8007 29.4563 56.8007 30.4974C56.8007 31.1741 56.6498 31.7571 56.3479 32.2464C56.0564 32.7357 55.6295 33.1105 55.0673 33.3708C54.5051 33.6311 53.8232 33.7612 53.0216 33.7612L53.1621 33.527H53.6775C54.1043 33.527 54.4739 33.6311 54.7862 33.8393C55.109 34.0475 55.3901 34.3755 55.6295 34.8231L56.8007 36.9938C56.9257 37.2125 56.9829 37.4259 56.9725 37.6341C56.9621 37.8423 56.884 38.0141 56.7383 38.1494C56.5925 38.2744 56.3791 38.3368 56.098 38.3368C55.8169 38.3368 55.5879 38.2796 55.4109 38.1651C55.2339 38.0401 55.0777 37.8527 54.9424 37.6029L53.3651 34.6982C53.1777 34.3442 52.9539 34.11 52.6936 33.9955C52.4438 33.8705 52.121 33.8081 51.7254 33.8081H50.2418V37.3062C50.2418 37.6289 50.1585 37.884 49.992 38.0714C49.8254 38.2484 49.5755 38.3368 49.2424 38.3368ZM50.2418 32.3245H52.678C53.3964 32.3245 53.9377 32.1788 54.3021 31.8873C54.6769 31.5853 54.8643 31.1377 54.8643 30.5442C54.8643 29.9612 54.6769 29.524 54.3021 29.2325C53.9377 28.9305 53.3964 28.7796 52.678 28.7796H50.2418V32.3245ZM60.0107 38.2119C59.6671 38.2119 59.4016 38.1234 59.2142 37.9464C59.0372 37.759 58.9487 37.4936 58.9487 37.15V28.2642C58.9487 27.9207 59.0372 27.6604 59.2142 27.4834C59.4016 27.296 59.6671 27.2023 60.0107 27.2023H65.5857C65.846 27.2023 66.0438 27.27 66.1791 27.4053C66.3249 27.5407 66.3978 27.7333 66.3978 27.9831C66.3978 28.2434 66.3249 28.4464 66.1791 28.5922C66.0438 28.7275 65.846 28.7952 65.5857 28.7952H60.8696V31.8248H65.2422C65.5128 31.8248 65.7159 31.8925 65.8512 32.0278C65.9865 32.1631 66.0542 32.361 66.0542 32.6212C66.0542 32.8815 65.9865 33.0793 65.8512 33.2147C65.7159 33.35 65.5128 33.4177 65.2422 33.4177H60.8696V36.619H65.5857C65.846 36.619 66.0438 36.6867 66.1791 36.8221C66.3249 36.9574 66.3978 37.1552 66.3978 37.4155C66.3978 37.6757 66.3249 37.8736 66.1791 38.0089C66.0438 38.1442 65.846 38.2119 65.5857 38.2119H60.0107ZM77.4027 39.9766C77.5485 40.2056 77.6057 40.4138 77.5745 40.6012C77.5433 40.7886 77.46 40.9448 77.3246 41.0697C77.1893 41.2051 77.0227 41.2884 76.8249 41.3196C76.6271 41.3612 76.4293 41.3404 76.2315 41.2571C76.0337 41.1842 75.8671 41.0385 75.7318 40.8199L74.6542 39.0864C74.5085 38.847 74.3107 38.6648 74.0608 38.5399C73.8214 38.4253 73.5246 38.3681 73.1707 38.3681L74.7167 37.759C75.206 37.759 75.5964 37.8475 75.8879 38.0245C76.1794 38.1911 76.4605 38.4878 76.7312 38.9147L77.4027 39.9766ZM73.1863 38.3681C72.1244 38.3681 71.1926 38.1338 70.3909 37.6653C69.5997 37.1968 68.9855 36.541 68.5482 35.6977C68.1109 34.844 67.8923 33.8445 67.8923 32.6993C67.8923 31.8352 68.0172 31.0596 68.2671 30.3725C68.517 29.6749 68.8709 29.0815 69.329 28.5922C69.7975 28.0925 70.3545 27.7125 71 27.4522C71.6559 27.1815 72.3846 27.0462 73.1863 27.0462C74.2586 27.0462 75.1904 27.2804 75.9816 27.7489C76.7729 28.207 77.3871 28.8577 77.8244 29.701C78.2616 30.5442 78.4803 31.5385 78.4803 32.6837C78.4803 33.5478 78.3553 34.3286 78.1055 35.0262C77.8556 35.7237 77.4964 36.3223 77.0279 36.8221C76.5698 37.3218 76.0129 37.707 75.357 37.9777C74.7115 38.2379 73.9879 38.3681 73.1863 38.3681ZM73.1863 36.6503C73.863 36.6503 74.4356 36.4941 74.9041 36.1818C75.383 35.8694 75.7474 35.4166 75.9972 34.8231C76.2575 34.2297 76.3877 33.5218 76.3877 32.6993C76.3877 31.45 76.1066 30.4818 75.5444 29.7947C74.9926 29.1075 74.2066 28.764 73.1863 28.764C72.52 28.764 71.9474 28.9201 71.4685 29.2325C70.9896 29.5344 70.62 29.9821 70.3597 30.5755C70.1098 31.1585 69.9849 31.8664 69.9849 32.6993C69.9849 33.9382 70.266 34.9064 70.8282 35.604C71.3904 36.3015 72.1764 36.6503 73.1863 36.6503ZM85.0885 38.3681C84.3285 38.3681 83.6569 38.2692 83.0739 38.0714C82.5013 37.8736 82.0172 37.5821 81.6216 37.1968C81.226 36.8012 80.9293 36.3119 80.7315 35.7289C80.5337 35.1459 80.4348 34.4692 80.4348 33.6988V28.0925C80.4348 27.7489 80.518 27.4938 80.6846 27.3273C80.8616 27.1607 81.1115 27.0774 81.4342 27.0774C81.7569 27.0774 82.0016 27.1607 82.1682 27.3273C82.3452 27.4938 82.4337 27.7489 82.4337 28.0925V33.6831C82.4337 34.6722 82.6575 35.4166 83.1052 35.9163C83.5632 36.4056 84.2243 36.6503 85.0885 36.6503C85.9526 36.6503 86.6085 36.4056 87.0561 35.9163C87.5038 35.4166 87.7276 34.6722 87.7276 33.6831V28.0925C87.7276 27.7489 87.8109 27.4938 87.9775 27.3273C88.1545 27.1607 88.4043 27.0774 88.7271 27.0774C89.0394 27.0774 89.2789 27.1607 89.4454 27.3273C89.6224 27.4938 89.7109 27.7489 89.7109 28.0925V33.6988C89.7109 34.719 89.5339 35.5779 89.18 36.2755C88.8364 36.973 88.3211 37.4988 87.6339 37.8527C86.9468 38.1963 86.0983 38.3681 85.0885 38.3681ZM93.1041 38.2119C92.7605 38.2119 92.495 38.1234 92.3076 37.9464C92.1307 37.759 92.0422 37.4936 92.0422 37.15V28.2642C92.0422 27.9207 92.1307 27.6604 92.3076 27.4834C92.495 27.296 92.7605 27.2023 93.1041 27.2023H98.6791C98.9394 27.2023 99.1372 27.27 99.2726 27.4053C99.4183 27.5407 99.4912 27.7333 99.4912 27.9831C99.4912 28.2434 99.4183 28.4464 99.2726 28.5922C99.1372 28.7275 98.9394 28.7952 98.6791 28.7952H93.963V31.8248H98.3356C98.6063 31.8248 98.8093 31.8925 98.9446 32.0278C99.08 32.1631 99.1476 32.361 99.1476 32.6212C99.1476 32.8815 99.08 33.0793 98.9446 33.2147C98.8093 33.35 98.6063 33.4177 98.3356 33.4177H93.963V36.619H98.6791C98.9394 36.619 99.1372 36.6867 99.2726 36.8221C99.4183 36.9574 99.4912 37.1552 99.4912 37.4155C99.4912 37.6757 99.4183 37.8736 99.2726 38.0089C99.1372 38.1442 98.9394 38.2119 98.6791 38.2119H93.1041ZM105.002 38.3681C104.544 38.3681 104.086 38.3316 103.628 38.2588C103.17 38.1963 102.738 38.0974 102.332 37.9621C101.926 37.8163 101.562 37.6393 101.239 37.4311C101.052 37.3062 100.921 37.1552 100.848 36.9782C100.776 36.8012 100.75 36.6294 100.77 36.4629C100.802 36.2859 100.869 36.1349 100.973 36.01C101.088 35.8747 101.228 35.7914 101.395 35.7601C101.562 35.7289 101.744 35.7757 101.942 35.9007C102.4 36.1714 102.884 36.3692 103.394 36.4941C103.904 36.619 104.44 36.6815 105.002 36.6815C105.825 36.6815 106.424 36.5462 106.798 36.2755C107.173 35.9944 107.361 35.6352 107.361 35.1979C107.361 34.8336 107.225 34.5473 106.955 34.339C106.694 34.1308 106.241 33.959 105.596 33.8237L103.878 33.4645C102.889 33.2563 102.15 32.9075 101.661 32.4182C101.182 31.9185 100.942 31.2626 100.942 30.4505C100.942 29.9404 101.046 29.4771 101.255 29.0607C101.463 28.6442 101.754 28.2851 102.129 27.9831C102.514 27.6812 102.967 27.4522 103.488 27.296C104.019 27.1294 104.602 27.0462 105.237 27.0462C105.861 27.0462 106.455 27.1242 107.017 27.2804C107.579 27.4366 108.084 27.6656 108.532 27.9675C108.698 28.0821 108.808 28.2226 108.86 28.3892C108.922 28.5557 108.938 28.7223 108.907 28.8889C108.875 29.0451 108.802 29.1804 108.688 29.2949C108.573 29.4094 108.428 29.4771 108.251 29.4979C108.084 29.5188 107.892 29.4667 107.673 29.3418C107.288 29.1231 106.897 28.967 106.502 28.8733C106.106 28.7796 105.679 28.7327 105.221 28.7327C104.742 28.7327 104.331 28.8004 103.987 28.9357C103.644 29.0711 103.378 29.2637 103.191 29.5136C103.014 29.753 102.925 30.0393 102.925 30.3725C102.925 30.7473 103.05 31.0492 103.3 31.2782C103.55 31.4968 103.977 31.6686 104.581 31.7936L106.283 32.1527C107.314 32.3714 108.079 32.7149 108.579 33.1834C109.089 33.6519 109.344 34.2766 109.344 35.0574C109.344 35.5571 109.24 36.01 109.032 36.416C108.834 36.8221 108.542 37.1708 108.157 37.4623C107.782 37.7538 107.329 37.9777 106.798 38.1338C106.267 38.29 105.669 38.3681 105.002 38.3681ZM114.485 38.3368C114.162 38.3368 113.912 38.2484 113.735 38.0714C113.569 37.884 113.485 37.6289 113.485 37.3062V28.8733H110.44C110.17 28.8733 109.956 28.8004 109.8 28.6547C109.654 28.4985 109.581 28.2903 109.581 28.03C109.581 27.7593 109.654 27.5563 109.8 27.421C109.956 27.2752 110.17 27.2023 110.44 27.2023H118.53C118.8 27.2023 119.008 27.2752 119.154 27.421C119.31 27.5563 119.388 27.7593 119.388 28.03C119.388 28.2903 119.31 28.4985 119.154 28.6547C119.008 28.8004 118.8 28.8733 118.53 28.8733H115.484V37.3062C115.484 37.6289 115.401 37.884 115.235 38.0714C115.068 38.2484 114.818 38.3368 114.485 38.3368ZM125.831 38.2119C125.488 38.2119 125.222 38.1234 125.035 37.9464C124.858 37.759 124.77 37.4936 124.77 37.15V28.2642C124.77 27.9207 124.858 27.6604 125.035 27.4834C125.222 27.296 125.488 27.2023 125.831 27.2023H128.861C130.704 27.2023 132.125 27.676 133.124 28.6234C134.134 29.5708 134.639 30.9294 134.639 32.6993C134.639 33.5842 134.509 34.3703 134.249 35.0574C133.999 35.7341 133.624 36.3067 133.124 36.7752C132.635 37.2437 132.031 37.6029 131.313 37.8527C130.605 38.0922 129.788 38.2119 128.861 38.2119H125.831ZM126.768 36.5566H128.736C129.382 36.5566 129.939 36.4785 130.407 36.3223C130.886 36.1557 131.282 35.9163 131.594 35.604C131.917 35.2812 132.156 34.8804 132.312 34.4015C132.468 33.9122 132.547 33.3448 132.547 32.6993C132.547 31.4084 132.229 30.4453 131.594 29.8103C130.959 29.1752 130.006 28.8577 128.736 28.8577H126.768V36.5566ZM137.727 38.2119C137.383 38.2119 137.118 38.1234 136.93 37.9464C136.753 37.759 136.665 37.4936 136.665 37.15V28.2642C136.665 27.9207 136.753 27.6604 136.93 27.4834C137.118 27.296 137.383 27.2023 137.727 27.2023H143.302C143.562 27.2023 143.76 27.27 143.895 27.4053C144.041 27.5407 144.114 27.7333 144.114 27.9831C144.114 28.2434 144.041 28.4464 143.895 28.5922C143.76 28.7275 143.562 28.7952 143.302 28.7952H138.586V31.8248H142.958C143.229 31.8248 143.432 31.8925 143.567 32.0278C143.703 32.1631 143.77 32.361 143.77 32.6212C143.77 32.8815 143.703 33.0793 143.567 33.2147C143.432 33.35 143.229 33.4177 142.958 33.4177H138.586V36.619H143.302C143.562 36.619 143.76 36.6867 143.895 36.8221C144.041 36.9574 144.114 37.1552 144.114 37.4155C144.114 37.6757 144.041 37.8736 143.895 38.0089C143.76 38.1442 143.562 38.2119 143.302 38.2119H137.727ZM146.92 38.3368C146.628 38.3368 146.405 38.2536 146.248 38.087C146.092 37.9204 146.014 37.6914 146.014 37.3999V28.0144C146.014 27.7125 146.097 27.4834 146.264 27.3273C146.431 27.1607 146.66 27.0774 146.951 27.0774C147.211 27.0774 147.414 27.1294 147.56 27.2336C147.716 27.3273 147.857 27.4938 147.982 27.7333L151.839 34.87H151.339L155.197 27.7333C155.322 27.4938 155.457 27.3273 155.603 27.2336C155.748 27.1294 155.951 27.0774 156.212 27.0774C156.503 27.0774 156.727 27.1607 156.883 27.3273C157.039 27.4834 157.117 27.7125 157.117 28.0144V37.3999C157.117 37.6914 157.039 37.9204 156.883 38.087C156.737 38.2536 156.514 38.3368 156.212 38.3368C155.92 38.3368 155.696 38.2536 155.54 38.087C155.384 37.9204 155.306 37.6914 155.306 37.3999V30.1694H155.649L152.37 36.1505C152.266 36.3275 152.157 36.4577 152.042 36.541C151.928 36.6242 151.771 36.6659 151.574 36.6659C151.376 36.6659 151.214 36.6242 151.089 36.541C150.965 36.4473 150.855 36.3171 150.762 36.1505L147.451 30.1538H147.826V37.3999C147.826 37.6914 147.748 37.9204 147.591 38.087C147.446 38.2536 147.222 38.3368 146.92 38.3368ZM164.475 38.3681C163.413 38.3681 162.482 38.1338 161.68 37.6653C160.889 37.1968 160.275 36.541 159.837 35.6977C159.4 34.844 159.181 33.8445 159.181 32.6993C159.181 31.8352 159.306 31.0596 159.556 30.3725C159.806 29.6749 160.16 29.0815 160.618 28.5922C161.087 28.0925 161.644 27.7125 162.289 27.4522C162.945 27.1815 163.674 27.0462 164.475 27.0462C165.548 27.0462 166.479 27.2804 167.271 27.7489C168.062 28.207 168.676 28.8577 169.113 29.701C169.551 30.5442 169.769 31.5385 169.769 32.6837C169.769 33.5478 169.644 34.3286 169.395 35.0262C169.145 35.7237 168.785 36.3223 168.317 36.8221C167.859 37.3218 167.302 37.707 166.646 37.9777C166.001 38.2379 165.277 38.3681 164.475 38.3681ZM164.475 36.6503C165.152 36.6503 165.725 36.4941 166.193 36.1818C166.672 35.8694 167.036 35.4166 167.286 34.8231C167.547 34.2297 167.677 33.5218 167.677 32.6993C167.677 31.45 167.396 30.4818 166.833 29.7947C166.282 29.1075 165.496 28.764 164.475 28.764C163.809 28.764 163.236 28.9201 162.758 29.2325C162.279 29.5344 161.909 29.9821 161.649 30.5755C161.399 31.1585 161.274 31.8664 161.274 32.6993C161.274 33.9382 161.555 34.9064 162.117 35.604C162.679 36.3015 163.465 36.6503 164.475 36.6503Z" fill="black"/>
</svg>
