<svg width="101" height="23" viewBox="0 0 101 23" fill="none" xmlns="http://www.w3.org/2000/svg">
<path d="M31.5377 3.74711C31.1672 2.36112 30.0759 1.26985 28.6899 0.899386C26.1778 0.226316 16.1052 0.226318 16.1052 0.226318C16.1052 0.226318 6.03259 0.226316 3.52042 0.899386C2.13463 1.26985 1.04315 2.36112 0.67269 3.74711C-0.000183105 6.25909 -0.000183105 11.5002 -0.000183105 11.5002C-0.000183105 11.5002 -0.000183105 16.7412 0.67269 19.253C1.04315 20.639 2.13463 21.7304 3.52042 22.1009C6.03259 22.7738 16.1052 22.7738 16.1052 22.7738C16.1052 22.7738 26.1778 22.7738 28.6899 22.1009C30.0759 21.7304 31.1672 20.639 31.5377 19.253C32.2109 16.7412 32.2109 11.5002 32.2109 11.5002C32.2109 11.5002 32.2109 6.25909 31.5377 3.74711Z" fill="#ED1F24"/>
<path d="M12.884 16.3319L21.2524 11.5003L12.884 6.66846V16.3319Z" fill="white"/>
<path d="M50.3244 18.5273C50.5008 18.0671 50.5894 17.3145 50.5894 16.2702V11.8704C50.5894 10.857 50.5008 10.1161 50.3244 9.64756C50.1479 9.17945 49.8368 8.9451 49.3918 8.9451C48.9617 8.9451 48.6581 9.17945 48.4818 9.64756C48.3052 10.1161 48.2169 10.857 48.2169 11.8704V16.2702C48.2169 17.3145 48.3011 18.0671 48.4703 18.5273C48.639 18.9881 48.946 19.2183 49.3918 19.2183C49.8368 19.2183 50.1479 18.9881 50.3244 18.5273ZM46.7543 20.7388C46.1166 20.3094 45.6635 19.641 45.3952 18.7346C45.1263 17.829 44.9922 16.6233 44.9922 15.1183V13.0684C44.9922 11.548 45.1454 10.3269 45.4528 9.40592C45.7597 8.48449 46.2395 7.8126 46.8924 7.39026C47.545 6.96811 48.4011 6.75684 49.4608 6.75684C50.5051 6.75684 51.3419 6.97186 51.9716 7.4019C52.6011 7.83174 53.0619 8.50382 53.3539 9.41716C53.6452 10.3313 53.7912 11.548 53.7912 13.0684V15.1183C53.7912 16.6233 53.6492 17.8329 53.3651 18.7464C53.0808 19.6604 52.62 20.3281 51.9831 20.7503C51.3455 21.1726 50.4821 21.3837 49.3918 21.3837C48.2703 21.3837 47.3911 21.1687 46.7543 20.7388Z" fill="#272727"/>
<path d="M96.0818 9.20884C95.9208 9.40867 95.8129 9.73495 95.7594 10.1877C95.7054 10.6408 95.6792 11.3281 95.6792 12.2495V13.2632H98.0051V12.2495C98.0051 11.3435 97.9743 10.6562 97.9132 10.1877C97.8516 9.71956 97.7406 9.38974 97.5794 9.1974C97.4179 9.00546 97.1683 8.90939 96.8306 8.90939C96.4925 8.90939 96.2431 9.00941 96.0818 9.20884ZM95.6792 15.1521V15.8662C95.6792 16.7724 95.7054 17.4516 95.7594 17.9045C95.8129 18.3576 95.9242 18.6881 96.0934 18.8954C96.2625 19.1025 96.5231 19.2065 96.8768 19.2065C97.3524 19.2065 97.679 19.0218 97.8556 18.6533C98.0319 18.2848 98.128 17.6708 98.1434 16.8105L100.885 16.9718C100.9 17.0951 100.908 17.2636 100.908 17.4784C100.908 18.7839 100.551 19.7592 99.8365 20.4041C99.1228 21.0489 98.1126 21.3717 96.8075 21.3717C95.2412 21.3717 94.1431 20.8803 93.5136 19.8971C92.8837 18.9147 92.5689 17.3944 92.5689 15.3363V12.8713C92.5689 10.7522 92.8954 9.20529 93.5481 8.23001C94.2007 7.25473 95.318 6.76709 96.8998 6.76709C97.9897 6.76709 98.8269 6.96672 99.4104 7.36599C99.9938 7.76565 100.405 8.38743 100.643 9.23192C100.881 10.0766 101 11.2438 101 12.7332V15.1521H95.6792Z" fill="#272727"/>
<path d="M39.0136 14.8874L35.3972 1.82666H38.5528L39.8197 7.74641C40.1424 9.20578 40.3803 10.4495 40.5338 11.4781H40.6261C40.7334 10.7411 40.9715 9.50523 41.34 7.76949L42.653 1.82666H45.8088L42.1464 14.8874V21.1532H39.0136V14.8874Z" fill="#272727"/>
<path d="M64.0549 7.03296V21.1532H61.5672L61.2906 19.426H61.2216C60.5458 20.7313 59.5322 21.3836 58.181 21.3836C57.2443 21.3836 56.5533 21.0767 56.1079 20.4624C55.6625 19.8483 55.4399 18.8882 55.4399 17.5831V7.03296H58.6187V17.3987C58.6187 18.0285 58.6879 18.4777 58.826 18.746C58.9643 19.0151 59.1947 19.1494 59.517 19.1494C59.7936 19.1494 60.0585 19.065 60.3116 18.8959C60.5651 18.7269 60.7531 18.5122 60.8762 18.2511V7.03296H64.0549Z" fill="#272727"/>
<path d="M80.3603 7.03296V21.1532H77.8726L77.596 19.426H77.5274C76.851 20.7313 75.8376 21.3836 74.4863 21.3836C73.5495 21.3836 72.8587 21.0767 72.4133 20.4624C71.9676 19.8483 71.7453 18.8882 71.7453 17.5831V7.03296H74.9241V17.3987C74.9241 18.0285 74.9931 18.4777 75.1312 18.746C75.2697 19.0151 75.5001 19.1494 75.8224 19.1494C76.099 19.1494 76.3639 19.065 76.617 18.8959C76.8705 18.7269 77.0585 18.5122 77.1816 18.2511V7.03296H80.3603Z" fill="#272727"/>
<path d="M72.693 4.38386H69.5371V21.1532H66.4274V4.38386H63.2718V1.8269H72.693V4.38386Z" fill="#272727"/>
<path d="M87.9673 15.0498C87.9673 16.0789 87.9247 16.8852 87.8404 17.4685C87.756 18.0524 87.614 18.467 87.4143 18.7124C87.2147 18.9582 86.9454 19.0809 86.6083 19.0809C86.3467 19.0809 86.1049 19.0196 85.8826 18.8967C85.6595 18.7738 85.4795 18.5895 85.3411 18.3437V10.3277C85.4486 9.94398 85.6328 9.62895 85.894 9.38315C86.1552 9.13795 86.4389 9.01466 86.7462 9.01466C87.0687 9.01466 87.3181 9.1415 87.4948 9.3946C87.6712 9.64808 87.7943 10.0742 87.8635 10.6735C87.9326 11.2722 87.9673 12.1244 87.9673 13.23V15.0498ZM90.8811 9.29024C90.6888 8.39979 90.3779 7.75473 89.948 7.35507C89.518 6.956 88.9266 6.75637 88.1744 6.75637C87.5909 6.75637 87.0456 6.92168 86.5391 7.2517C86.0323 7.58192 85.6405 8.01571 85.3641 8.55306H85.3409L85.3411 1.11279H82.2775V21.153H84.9033L85.2261 19.8171H85.2949C85.5405 20.2931 85.909 20.6693 86.4006 20.9459C86.892 21.2222 87.4374 21.3605 88.0363 21.3605C89.111 21.3605 89.9019 20.865 90.4088 19.8747C90.9156 18.8843 91.1689 17.3373 91.1689 15.2331V12.999C91.1689 11.4174 91.0728 10.1811 90.8811 9.29024Z" fill="#272727"/>
</svg>
