<svg width="38" height="27" viewBox="0 0 38 27" fill="none" xmlns="http://www.w3.org/2000/svg">
<path d="M13.7985 13.2634C13.7985 14.439 14.2991 15.5664 15.1901 16.3977C16.0812 17.229 17.2897 17.696 18.5498 17.696C19.8099 17.696 21.0184 17.229 21.9094 16.3977C22.8005 15.5664 23.301 14.439 23.301 13.2634C23.301 12.0878 22.8005 10.9603 21.9094 10.129C21.0184 9.29777 19.8099 8.83077 18.5498 8.83077C17.2897 8.83077 16.0812 9.29777 15.1901 10.129C14.2991 10.9603 13.7985 12.0878 13.7985 13.2634ZM36.9694 12.2423C32.9478 4.33879 26.8687 0.361305 18.7195 0.361305C10.566 0.361305 4.49117 4.33878 0.469576 12.2463C0.308268 12.5649 0.224609 12.9129 0.224609 13.2654C0.224609 13.6178 0.308268 13.9658 0.469576 14.2845C4.49117 22.188 10.5702 26.1655 18.7195 26.1655C26.873 26.1655 32.9478 22.188 36.9694 14.2805C37.296 13.6394 37.296 12.8953 36.9694 12.2423ZM18.5498 20.2289C14.4264 20.2289 11.0835 17.1103 11.0835 13.2634C11.0835 9.4165 14.4264 6.29784 18.5498 6.29784C22.6732 6.29784 26.016 9.4165 26.016 13.2634C26.016 17.1103 22.6732 20.2289 18.5498 20.2289Z" fill="#002947" fill-opacity="0.62"/>
</svg>
