<svg width="85" height="85" viewBox="0 0 85 85" fill="none" xmlns="http://www.w3.org/2000/svg">
<path d="M70.8327 28.3333L49.5827 7.08331H21.2493C19.3707 7.08331 17.5691 7.82959 16.2407 9.15797C14.9123 10.4864 14.166 12.288 14.166 14.1666V70.8333C14.166 72.7119 14.9123 74.5136 16.2407 75.842C17.5691 77.1704 19.3707 77.9167 21.2493 77.9167H63.7493C65.628 77.9167 67.4296 77.1704 68.758 75.842C70.0864 74.5136 70.8327 72.7119 70.8327 70.8333V28.3333ZM31.8743 67.2917H24.791V35.4167H31.8743V67.2917ZM46.041 67.2917H38.9577V46.0417H46.041V67.2917ZM60.2077 67.2917H53.1243V56.6667H60.2077V67.2917ZM49.5827 31.875H46.041V14.1666L63.7493 31.875H49.5827Z" fill="#002947" fill-opacity="0.27"/>
</svg>
