<svg width="49" height="40" viewBox="0 0 49 40" fill="none" xmlns="http://www.w3.org/2000/svg">
<path d="M48.9952 4.87084C47.1605 5.68362 45.2145 6.21712 43.2218 6.45361C45.2974 5.20959 46.8911 3.23964 47.6415 0.892468C45.6684 2.06335 43.5097 2.88831 41.2586 3.3317C39.4249 1.37821 36.8126 0.157349 33.9213 0.157349C28.3699 0.157349 23.8691 4.65802 23.8691 10.209C23.8691 10.997 23.9581 11.764 24.1294 12.4999C15.7753 12.0806 8.36861 8.07888 3.41072 1.99735C2.54565 3.48194 2.04995 5.20883 2.04995 7.05074C2.04995 10.5382 3.82469 13.6148 6.52172 15.4174C4.92545 15.3674 3.3643 14.9363 1.96861 14.16C1.96804 14.2021 1.96804 14.2442 1.96804 14.2865C1.96804 19.1568 5.43292 23.2195 10.0312 24.143C8.55098 24.5455 6.99833 24.6045 5.49187 24.3152C6.77091 28.3087 10.4833 31.2147 14.8817 31.2961C11.4415 33.992 7.10718 35.599 2.39789 35.599C1.58641 35.599 0.786411 35.5514 0 35.4586C4.44842 38.3106 9.73206 39.9747 15.4086 39.9747C33.898 39.9747 44.0084 24.6578 44.0084 11.3748C44.0084 10.9388 43.9988 10.5053 43.9793 10.0743C45.9472 8.65167 47.6458 6.88962 48.9952 4.87084Z" fill="#002947" fill-opacity="0.62"/>
</svg>
