<svg width="85" height="85" viewBox="0 0 85 85" fill="none" xmlns="http://www.w3.org/2000/svg">
<path d="M85 42.5C85 63.0381 65.9706 79.6875 42.5 79.6875C38.2906 79.6932 34.0987 79.1467 30.0316 78.0619C26.9291 79.6344 19.805 82.6519 7.82 84.6175C6.7575 84.7875 5.95 83.6825 6.36969 82.6944C8.25031 78.2531 9.95031 72.335 10.4603 66.9375C3.9525 60.4031 0 51.85 0 42.5C0 21.9619 19.0294 5.3125 42.5 5.3125C65.9706 5.3125 85 21.9619 85 42.5ZM38.2181 35.9444C37.8679 35.4217 37.4637 34.9374 37.0122 34.4994C36.3022 33.7682 35.4557 33.1835 34.5206 32.7781L34.4781 32.7569C33.22 32.1727 31.849 31.8717 30.4619 31.875C25.3725 31.875 21.25 35.8381 21.25 40.7309C21.25 45.6184 25.3725 49.5816 30.4619 49.5816C32.2841 49.5816 33.9787 49.0769 35.4078 48.2003C34.68 50.2669 33.3359 52.4716 31.1047 54.6816C30.8945 54.8867 30.7286 55.1327 30.6171 55.4044C30.5056 55.6761 30.4509 55.9678 30.4563 56.2614C30.4618 56.555 30.5273 56.8444 30.6489 57.1118C30.7705 57.3792 30.9455 57.6188 31.1631 57.8159C32.0822 58.666 33.5378 58.6394 34.425 57.7628C41.5119 50.7025 41.7031 43.1109 39.4241 38.0747C39.0893 37.3303 38.6856 36.6188 38.2181 35.9497V35.9444ZM58.4375 48.2003C57.715 50.2669 56.3656 52.4716 54.1344 54.6816C53.9245 54.8871 53.759 55.1334 53.6479 55.4052C53.5369 55.6771 53.4827 55.9689 53.4886 56.2625C53.4946 56.5562 53.5606 56.8455 53.6827 57.1127C53.8047 57.3798 53.9801 57.6192 54.1981 57.8159C55.1119 58.666 56.5675 58.6394 57.4547 57.7628C64.5416 50.7025 64.7328 43.1109 62.4591 38.0747C62.1225 37.3301 61.7169 36.6187 61.2478 35.9497C60.898 35.4252 60.4938 34.939 60.0419 34.4994C59.332 33.7681 58.4855 33.1833 57.5503 32.7781L57.5078 32.7569C56.2513 32.1735 54.8822 31.8725 53.4969 31.875C48.4128 31.875 44.285 35.8381 44.285 40.7309C44.285 45.6184 48.4128 49.5816 53.4969 49.5816C55.3191 49.5816 57.0138 49.0769 58.4428 48.2003H58.4375Z" fill="#002947" fill-opacity="0.27"/>
</svg>
