<svg width="85" height="85" viewBox="0 0 85 85" fill="none" xmlns="http://www.w3.org/2000/svg">
<path d="M26.5625 47.8125H47.8125V53.125H26.5625V47.8125ZM26.5625 34.5312H58.4375V39.8438H26.5625V34.5312ZM26.5625 61.0938H39.8438V66.4062H26.5625V61.0938Z" fill="#002947" fill-opacity="0.27"/>
<path d="M66.4062 13.2812H58.4375V10.625C58.4375 9.21604 57.8778 7.86478 56.8815 6.86849C55.8852 5.87221 54.534 5.3125 53.125 5.3125H31.875C30.466 5.3125 29.1148 5.87221 28.1185 6.86849C27.1222 7.86478 26.5625 9.21604 26.5625 10.625V13.2812H18.5938C17.1848 13.2812 15.8335 13.841 14.8372 14.8372C13.841 15.8335 13.2813 17.1848 13.2812 18.5938V74.375C13.2813 75.784 13.841 77.1352 14.8372 78.1315C15.8335 79.1278 17.1848 79.6875 18.5938 79.6875H66.4062C67.8152 79.6875 69.1665 79.1278 70.1628 78.1315C71.159 77.1352 71.7188 75.784 71.7188 74.375V18.5938C71.7188 17.1848 71.159 15.8335 70.1628 14.8372C69.1665 13.841 67.8152 13.2812 66.4062 13.2812ZM31.875 10.625H53.125V21.25H31.875V10.625ZM66.4062 74.375H18.5938V18.5938H26.5625V26.5625H58.4375V18.5938H66.4062V74.375Z" fill="#002947" fill-opacity="0.27"/>
</svg>
