<svg width="85" height="85" viewBox="0 0 85 85" fill="none" xmlns="http://www.w3.org/2000/svg">
<path fill-rule="evenodd" clip-rule="evenodd" d="M31.875 5.3125H63.75V42.5C63.7501 42.97 63.6255 43.4316 63.3889 43.8376C63.1524 44.2437 62.8123 44.5798 62.4034 44.8115C61.9945 45.0432 61.5315 45.1623 61.0615 45.1566C60.5916 45.1509 60.1316 45.0206 59.7284 44.7791L47.8125 37.6284L35.8966 44.7844C35.493 45.0262 35.0325 45.1565 34.5621 45.1619C34.0917 45.1674 33.6283 45.0479 33.2193 44.8155C32.8103 44.5832 32.4703 44.2464 32.2341 43.8395C31.9979 43.4327 31.874 42.9704 31.875 42.5V5.3125Z" fill="#002947" fill-opacity="0.27"/>
<path d="M15.9375 0H69.0625C71.8804 0 74.5829 1.11942 76.5755 3.11199C78.5681 5.10456 79.6875 7.80707 79.6875 10.625V74.375C79.6875 77.1929 78.5681 79.8954 76.5755 81.888C74.5829 83.8806 71.8804 85 69.0625 85H15.9375C13.1196 85 10.4171 83.8806 8.42449 81.888C6.43192 79.8954 5.3125 77.1929 5.3125 74.375V69.0625H10.625V74.375C10.625 75.784 11.1847 77.1352 12.181 78.1315C13.1773 79.1278 14.5285 79.6875 15.9375 79.6875H69.0625C70.4715 79.6875 71.8227 79.1278 72.819 78.1315C73.8153 77.1352 74.375 75.784 74.375 74.375V10.625C74.375 9.21604 73.8153 7.86478 72.819 6.86849C71.8227 5.87221 70.4715 5.3125 69.0625 5.3125H15.9375C14.5285 5.3125 13.1773 5.87221 12.181 6.86849C11.1847 7.86478 10.625 9.21604 10.625 10.625V15.9375H5.3125V10.625C5.3125 7.80707 6.43192 5.10456 8.42449 3.11199C10.4171 1.11942 13.1196 0 15.9375 0V0Z" fill="#002947" fill-opacity="0.27"/>
<path d="M5.3125 26.5625V23.9062C5.3125 23.2018 5.59235 22.5261 6.0905 22.028C6.58864 21.5299 7.26427 21.25 7.96875 21.25C8.67323 21.25 9.34886 21.5299 9.847 22.028C10.3451 22.5261 10.625 23.2018 10.625 23.9062V26.5625H13.2812C13.9857 26.5625 14.6614 26.8424 15.1595 27.3405C15.6576 27.8386 15.9375 28.5143 15.9375 29.2188C15.9375 29.9232 15.6576 30.5989 15.1595 31.097C14.6614 31.5951 13.9857 31.875 13.2812 31.875H2.65625C1.95177 31.875 1.27614 31.5951 0.777998 31.097C0.279854 30.5989 0 29.9232 0 29.2188C0 28.5143 0.279854 27.8386 0.777998 27.3405C1.27614 26.8424 1.95177 26.5625 2.65625 26.5625H5.3125ZM5.3125 42.5V39.8438C5.3125 39.1393 5.59235 38.4636 6.0905 37.9655C6.58864 37.4674 7.26427 37.1875 7.96875 37.1875C8.67323 37.1875 9.34886 37.4674 9.847 37.9655C10.3451 38.4636 10.625 39.1393 10.625 39.8438V42.5H13.2812C13.9857 42.5 14.6614 42.7799 15.1595 43.278C15.6576 43.7761 15.9375 44.4518 15.9375 45.1562C15.9375 45.8607 15.6576 46.5364 15.1595 47.0345C14.6614 47.5326 13.9857 47.8125 13.2812 47.8125H2.65625C1.95177 47.8125 1.27614 47.5326 0.777998 47.0345C0.279854 46.5364 0 45.8607 0 45.1562C0 44.4518 0.279854 43.7761 0.777998 43.278C1.27614 42.7799 1.95177 42.5 2.65625 42.5H5.3125ZM5.3125 58.4375V55.7812C5.3125 55.0768 5.59235 54.4011 6.0905 53.903C6.58864 53.4049 7.26427 53.125 7.96875 53.125C8.67323 53.125 9.34886 53.4049 9.847 53.903C10.3451 54.4011 10.625 55.0768 10.625 55.7812V58.4375H13.2812C13.9857 58.4375 14.6614 58.7174 15.1595 59.2155C15.6576 59.7136 15.9375 60.3893 15.9375 61.0938C15.9375 61.7982 15.6576 62.4739 15.1595 62.972C14.6614 63.4701 13.9857 63.75 13.2812 63.75H2.65625C1.95177 63.75 1.27614 63.4701 0.777998 62.972C0.279854 62.4739 0 61.7982 0 61.0938C0 60.3893 0.279854 59.7136 0.777998 59.2155C1.27614 58.7174 1.95177 58.4375 2.65625 58.4375H5.3125Z" fill="#002947" fill-opacity="0.27"/>
</svg>
