<svg width="105" height="125" viewBox="0 0 105 125" fill="none" xmlns="http://www.w3.org/2000/svg">
<path d="M18.3096 19.067C20.9139 19.6977 26.1629 22.3684 26.3247 28.0063" stroke="#002947" stroke-width="2.10634" stroke-linecap="round"/>
<path d="M76.2832 97.5746C78.1895 98.4604 82.3727 101.679 83.8554 107.467" stroke="#002947" stroke-width="2.10634" stroke-linecap="round"/>
<path d="M79.0605 87.8556C82.3404 87.4482 91.5315 88.2035 102.057 94.4847" stroke="#002947" stroke-width="2.10634" stroke-linecap="round"/>
<path d="M14.4872 49.7396C12.5895 46.0477 16.7769 41.7933 20.0341 39.4378C21.1346 42.7554 21.743 46.0311 21.9777 48.5845C22.2435 51.4765 16.6785 54.0027 14.4872 49.7396Z" fill="white" fill-opacity="0.63"/>
<path d="M88.9615 55.1844C89.3702 54.7706 89.3661 54.1038 88.9523 53.6951C88.5384 53.2863 87.8716 53.2904 87.4629 53.7043L88.9615 55.1844ZM63.1943 92.0727L62.1439 91.9959L64.2148 92.3329L63.1943 92.0727ZM41.5077 32.743L41.5729 31.6918L41.5447 31.6901L41.5165 31.6898L41.5077 32.743ZM21.453 38.4901L22.0015 39.3891L22.0575 39.355L22.1088 39.3142L21.453 38.4901ZM14.4872 49.7396L15.4239 49.2582L14.4872 49.7396ZM21.9777 48.5845L23.0264 48.4881L21.9777 48.5845ZM1.18783 23.5657C0.817522 24.0142 0.880946 24.678 1.32949 25.0483L8.639 31.0829C9.08755 31.4532 9.75136 31.3898 10.1217 30.9413C10.492 30.4928 10.4286 29.829 9.98001 29.4587L3.48267 24.0946L8.84672 17.5975C9.21703 17.149 9.15361 16.4852 8.70506 16.1149C8.25652 15.7446 7.5927 15.808 7.22239 16.2565L1.18783 23.5657ZM87.4629 53.7043C83.9637 57.247 78.5188 63.3793 73.5186 70.2995C68.5351 77.1966 63.9153 84.9817 62.1738 91.8126L64.2148 92.3329C65.8546 85.9011 70.2785 78.3803 75.226 71.5331C80.1568 64.7089 85.5303 58.6583 88.9615 55.1844L87.4629 53.7043ZM64.2447 92.1496C64.9531 82.4644 64.7161 67.8346 61.6742 55.4245C60.1539 49.2221 57.9143 43.4951 54.6783 39.2152C51.4231 34.91 47.1282 32.0367 41.5729 31.6918L41.4425 33.7941C46.2506 34.0926 50.0241 36.5521 52.9981 40.4855C55.9914 44.4443 58.1419 49.8617 59.6284 55.9259C62.5999 68.0489 62.8428 82.4406 62.1439 91.9959L64.2447 92.1496ZM41.5165 31.6898C39.3219 31.6715 35.6975 31.9456 31.8652 32.8205C28.0458 33.6925 23.9159 35.1843 20.7972 37.666L22.1088 39.3142C24.8746 37.1133 28.6555 35.7138 32.3341 34.874C35.9997 34.0371 39.4605 33.779 41.4989 33.7961L41.5165 31.6898ZM20.9044 37.591C20.4465 37.8704 19.942 38.2047 19.4169 38.5844L20.6513 40.2912C21.134 39.9422 21.5927 39.6385 22.0015 39.3891L20.9044 37.591ZM19.4169 38.5844C17.7369 39.7994 15.7659 41.5375 14.4521 43.5021C13.1482 45.452 12.3434 47.8726 13.5506 50.2211L15.4239 49.2582C14.7333 47.9147 15.0734 46.3622 16.2031 44.673C17.3228 42.9986 19.0741 41.4318 20.6513 40.2912L19.4169 38.5844ZM13.5506 50.2211C14.2073 51.4987 15.1557 52.3299 16.2415 52.7473C17.3119 53.1589 18.441 53.1405 19.4397 52.8589C20.4341 52.5785 21.3501 52.0237 22.0109 51.2886C22.6715 50.5537 23.1264 49.5751 23.0264 48.4881L20.9289 48.6809C20.9619 49.0399 20.8209 49.4616 20.4443 49.8805C20.0679 50.2992 19.5056 50.6518 18.868 50.8316C18.2348 51.0102 17.5785 51.0047 16.9974 50.7813C16.4318 50.5638 15.8629 50.1121 15.4239 49.2582L13.5506 50.2211ZM23.0264 48.4881C22.7848 45.8595 22.161 42.5045 21.0337 39.1063L19.0345 39.7694C20.1082 43.0062 20.7011 46.2027 20.9289 48.6809L23.0264 48.4881ZM21.0337 39.1063C19.6862 35.0438 17.5917 30.8363 14.4935 27.752C11.3646 24.6371 7.21674 22.68 1.89983 23.1878L2.10017 25.2846C6.71108 24.8442 10.2609 26.5104 13.0074 29.2447C15.7847 32.0095 17.7434 35.877 19.0345 39.7694L21.0337 39.1063Z" fill="#002947"/>
</svg>
